<svg width="320" height="153" viewBox="0 0 320 153" fill="none" xmlns="http://www.w3.org/2000/svg">
<rect width="320" height="153" rx="20" fill="#4CB2B6"/>
<path d="M31.18 50.78H35.78V53H28.38V39.04H31.18V50.78ZM47.8597 47.22C47.8597 47.62 47.833 47.98 47.7797 48.3H39.6797C39.7464 49.1 40.0264 49.7267 40.5197 50.18C41.013 50.6333 41.6197 50.86 42.3397 50.86C43.3797 50.86 44.1197 50.4133 44.5597 49.52H47.5797C47.2597 50.5867 46.6464 51.4667 45.7397 52.16C44.833 52.84 43.7197 53.18 42.3997 53.18C41.333 53.18 40.373 52.9467 39.5197 52.48C38.6797 52 38.0197 51.3267 37.5397 50.46C37.073 49.5933 36.8397 48.5933 36.8397 47.46C36.8397 46.3133 37.073 45.3067 37.5397 44.44C38.0064 43.5733 38.6597 42.9067 39.4997 42.44C40.3397 41.9733 41.3064 41.74 42.3997 41.74C43.453 41.74 44.393 41.9667 45.2197 42.42C46.0597 42.8733 46.7064 43.52 47.1597 44.36C47.6264 45.1867 47.8597 46.14 47.8597 47.22ZM44.9597 46.42C44.9464 45.7 44.6864 45.1267 44.1797 44.7C43.673 44.26 43.053 44.04 42.3197 44.04C41.6264 44.04 41.0397 44.2533 40.5597 44.68C40.093 45.0933 39.8064 45.6733 39.6997 46.42H44.9597ZM49.1834 47.42C49.1834 46.3 49.4034 45.3067 49.8434 44.44C50.2968 43.5733 50.9034 42.9067 51.6634 42.44C52.4368 41.9733 53.2968 41.74 54.2434 41.74C55.0701 41.74 55.7901 41.9067 56.4034 42.24C57.0301 42.5733 57.5301 42.9933 57.9034 43.5V41.92H60.7234V53H57.9034V51.38C57.5434 51.9 57.0434 52.3333 56.4034 52.68C55.7768 53.0133 55.0501 53.18 54.2234 53.18C53.2901 53.18 52.4368 52.94 51.6634 52.46C50.9034 51.98 50.2968 51.3067 49.8434 50.44C49.4034 49.56 49.1834 48.5533 49.1834 47.42ZM57.9034 47.46C57.9034 46.78 57.7701 46.2 57.5034 45.72C57.2368 45.2267 56.8768 44.8533 56.4234 44.6C55.9701 44.3333 55.4834 44.2 54.9634 44.2C54.4434 44.2 53.9634 44.3267 53.5234 44.58C53.0834 44.8333 52.7234 45.2067 52.4434 45.7C52.1768 46.18 52.0434 46.7533 52.0434 47.42C52.0434 48.0867 52.1768 48.6733 52.4434 49.18C52.7234 49.6733 53.0834 50.0533 53.5234 50.32C53.9768 50.5867 54.4568 50.72 54.9634 50.72C55.4834 50.72 55.9701 50.5933 56.4234 50.34C56.8768 50.0733 57.2368 49.7 57.5034 49.22C57.7701 48.7267 57.9034 48.14 57.9034 47.46ZM66.2581 43.64C66.6181 43.0533 67.0848 42.5933 67.6581 42.26C68.2448 41.9267 68.9115 41.76 69.6581 41.76V44.7H68.9181C68.0381 44.7 67.3715 44.9067 66.9181 45.32C66.4781 45.7333 66.2581 46.4533 66.2581 47.48V53H63.4581V41.92H66.2581V43.64ZM77.6841 41.76C79.0041 41.76 80.0707 42.18 80.8841 43.02C81.6974 43.8467 82.1041 45.0067 82.1041 46.5V53H79.3041V46.88C79.3041 46 79.0841 45.3267 78.6441 44.86C78.2041 44.38 77.6041 44.14 76.8441 44.14C76.0707 44.14 75.4574 44.38 75.0041 44.86C74.5641 45.3267 74.3441 46 74.3441 46.88V53H71.5441V41.92H74.3441V43.3C74.7174 42.82 75.1907 42.4467 75.7641 42.18C76.3507 41.9 76.9907 41.76 77.6841 41.76ZM104.892 41.92L101.652 53H98.6323L96.6123 45.26L94.5923 53H91.5523L88.2923 41.92H91.1323L93.0923 50.36L95.2123 41.92H98.1723L100.252 50.34L102.212 41.92H104.892ZM107.827 40.6C107.334 40.6 106.921 40.4467 106.587 40.14C106.267 39.82 106.107 39.4267 106.107 38.96C106.107 38.4933 106.267 38.1067 106.587 37.8C106.921 37.48 107.334 37.32 107.827 37.32C108.321 37.32 108.727 37.48 109.047 37.8C109.381 38.1067 109.547 38.4933 109.547 38.96C109.547 39.4267 109.381 39.82 109.047 40.14C108.727 40.4467 108.321 40.6 107.827 40.6ZM109.207 41.92V53H106.407V41.92H109.207ZM115.234 44.22V49.58C115.234 49.9533 115.32 50.2267 115.494 50.4C115.68 50.56 115.987 50.64 116.414 50.64H117.714V53H115.954C113.594 53 112.414 51.8533 112.414 49.56V44.22H111.094V41.92H112.414V39.18H115.234V41.92H117.714V44.22H115.234ZM125.968 41.76C126.808 41.76 127.554 41.9467 128.208 42.32C128.861 42.68 129.368 43.22 129.728 43.94C130.101 44.6467 130.288 45.5 130.288 46.5V53H127.488V46.88C127.488 46 127.268 45.3267 126.828 44.86C126.388 44.38 125.788 44.14 125.028 44.14C124.254 44.14 123.641 44.38 123.188 44.86C122.748 45.3267 122.528 46 122.528 46.88V53H119.728V38.2H122.528V43.3C122.888 42.82 123.368 42.4467 123.968 42.18C124.568 41.9 125.234 41.76 125.968 41.76ZM31.18 68.2V83H28.38V68.2H31.18ZM35.3664 70.6C34.8731 70.6 34.4597 70.4467 34.1264 70.14C33.8064 69.82 33.6464 69.4267 33.6464 68.96C33.6464 68.4933 33.8064 68.1067 34.1264 67.8C34.4597 67.48 34.8731 67.32 35.3664 67.32C35.8597 67.32 36.2664 67.48 36.5864 67.8C36.9197 68.1067 37.0864 68.4933 37.0864 68.96C37.0864 69.4267 36.9197 69.82 36.5864 70.14C36.2664 70.4467 35.8597 70.6 35.3664 70.6ZM36.7464 71.92V83H33.9464V71.92H36.7464ZM44.1328 80.42L46.9328 71.92H49.9128L45.8128 83H42.4128L38.3328 71.92H41.3328L44.1328 80.42ZM61.7855 77.22C61.7855 77.62 61.7588 77.98 61.7055 78.3H53.6055C53.6721 79.1 53.9521 79.7267 54.4455 80.18C54.9388 80.6333 55.5455 80.86 56.2655 80.86C57.3055 80.86 58.0455 80.4133 58.4855 79.52H61.5055C61.1855 80.5867 60.5721 81.4667 59.6655 82.16C58.7588 82.84 57.6455 83.18 56.3255 83.18C55.2588 83.18 54.2988 82.9467 53.4455 82.48C52.6055 82 51.9455 81.3267 51.4655 80.46C50.9988 79.5933 50.7655 78.5933 50.7655 77.46C50.7655 76.3133 50.9988 75.3067 51.4655 74.44C51.9321 73.5733 52.5855 72.9067 53.4255 72.44C54.2655 71.9733 55.2321 71.74 56.3255 71.74C57.3788 71.74 58.3188 71.9667 59.1455 72.42C59.9855 72.8733 60.6321 73.52 61.0855 74.36C61.5521 75.1867 61.7855 76.14 61.7855 77.22ZM58.8855 76.42C58.8721 75.7 58.6121 75.1267 58.1055 74.7C57.5988 74.26 56.9788 74.04 56.2455 74.04C55.5521 74.04 54.9655 74.2533 54.4855 74.68C54.0188 75.0933 53.7321 75.6733 53.6255 76.42H58.8855ZM73.2148 80.42L76.0148 71.92H78.9948L74.8948 83H71.4948L67.4148 71.92H70.4148L73.2148 80.42ZM81.9875 70.6C81.4942 70.6 81.0808 70.4467 80.7475 70.14C80.4275 69.82 80.2675 69.4267 80.2675 68.96C80.2675 68.4933 80.4275 68.1067 80.7475 67.8C81.0808 67.48 81.4942 67.32 81.9875 67.32C82.4808 67.32 82.8875 67.48 83.2075 67.8C83.5408 68.1067 83.7075 68.4933 83.7075 68.96C83.7075 69.4267 83.5408 69.82 83.2075 70.14C82.8875 70.4467 82.4808 70.6 81.9875 70.6ZM83.3675 71.92V83H80.5675V71.92H83.3675ZM85.4139 77.42C85.4139 76.3 85.6339 75.3067 86.0739 74.44C86.5272 73.5733 87.1406 72.9067 87.9139 72.44C88.6872 71.9733 89.5472 71.74 90.4939 71.74C91.2139 71.74 91.9006 71.9 92.5539 72.22C93.2072 72.5267 93.7272 72.94 94.1139 73.46V68.2H96.9539V83H94.1139V81.36C93.7672 81.9067 93.2806 82.3467 92.6539 82.68C92.0272 83.0133 91.3006 83.18 90.4739 83.18C89.5406 83.18 88.6872 82.94 87.9139 82.46C87.1406 81.98 86.5272 81.3067 86.0739 80.44C85.6339 79.56 85.4139 78.5533 85.4139 77.42ZM94.1339 77.46C94.1339 76.78 94.0006 76.2 93.7339 75.72C93.4672 75.2267 93.1072 74.8533 92.6539 74.6C92.2006 74.3333 91.7139 74.2 91.1939 74.2C90.6739 74.2 90.1939 74.3267 89.7539 74.58C89.3139 74.8333 88.9539 75.2067 88.6739 75.7C88.4072 76.18 88.2739 76.7533 88.2739 77.42C88.2739 78.0867 88.4072 78.6733 88.6739 79.18C88.9539 79.6733 89.3139 80.0533 89.7539 80.32C90.2072 80.5867 90.6872 80.72 91.1939 80.72C91.7139 80.72 92.2006 80.5933 92.6539 80.34C93.1072 80.0733 93.4672 79.7 93.7339 79.22C94.0006 78.7267 94.1339 78.14 94.1339 77.46ZM109.989 77.22C109.989 77.62 109.962 77.98 109.909 78.3H101.809C101.875 79.1 102.155 79.7267 102.649 80.18C103.142 80.6333 103.749 80.86 104.469 80.86C105.509 80.86 106.249 80.4133 106.689 79.52H109.709C109.389 80.5867 108.775 81.4667 107.869 82.16C106.962 82.84 105.849 83.18 104.529 83.18C103.462 83.18 102.502 82.9467 101.649 82.48C100.809 82 100.149 81.3267 99.6686 80.46C99.2019 79.5933 98.9686 78.5933 98.9686 77.46C98.9686 76.3133 99.2019 75.3067 99.6686 74.44C100.135 73.5733 100.789 72.9067 101.629 72.44C102.469 71.9733 103.435 71.74 104.529 71.74C105.582 71.74 106.522 71.9667 107.349 72.42C108.189 72.8733 108.835 73.52 109.289 74.36C109.755 75.1867 109.989 76.14 109.989 77.22ZM107.089 76.42C107.075 75.7 106.815 75.1267 106.309 74.7C105.802 74.26 105.182 74.04 104.449 74.04C103.755 74.04 103.169 74.2533 102.689 74.68C102.222 75.0933 101.935 75.6733 101.829 76.42H107.089ZM116.952 83.18C115.886 83.18 114.926 82.9467 114.072 82.48C113.219 82 112.546 81.3267 112.052 80.46C111.572 79.5933 111.332 78.5933 111.332 77.46C111.332 76.3267 111.579 75.3267 112.072 74.46C112.579 73.5933 113.266 72.9267 114.132 72.46C114.999 71.98 115.966 71.74 117.032 71.74C118.099 71.74 119.066 71.98 119.932 72.46C120.799 72.9267 121.479 73.5933 121.972 74.46C122.479 75.3267 122.732 76.3267 122.732 77.46C122.732 78.5933 122.472 79.5933 121.952 80.46C121.446 81.3267 120.752 82 119.872 82.48C119.006 82.9467 118.032 83.18 116.952 83.18ZM116.952 80.74C117.459 80.74 117.932 80.62 118.372 80.38C118.826 80.1267 119.186 79.7533 119.452 79.26C119.719 78.7667 119.852 78.1667 119.852 77.46C119.852 76.4067 119.572 75.6 119.012 75.04C118.466 74.4667 117.792 74.18 116.992 74.18C116.192 74.18 115.519 74.4667 114.972 75.04C114.439 75.6 114.172 76.4067 114.172 77.46C114.172 78.5133 114.432 79.3267 114.952 79.9C115.486 80.46 116.152 80.74 116.952 80.74ZM27.66 107.46C27.66 106.313 27.8933 105.313 28.36 104.46C28.8267 103.593 29.4733 102.927 30.3 102.46C31.1267 101.98 32.0733 101.74 33.14 101.74C34.5133 101.74 35.6467 102.087 36.54 102.78C37.4467 103.46 38.0533 104.42 38.36 105.66H35.34C35.18 105.18 34.9067 104.807 34.52 104.54C34.1467 104.26 33.68 104.12 33.12 104.12C32.32 104.12 31.6867 104.413 31.22 105C30.7533 105.573 30.52 106.393 30.52 107.46C30.52 108.513 30.7533 109.333 31.22 109.92C31.6867 110.493 32.32 110.78 33.12 110.78C34.2533 110.78 34.9933 110.273 35.34 109.26H38.36C38.0533 110.46 37.4467 111.413 36.54 112.12C35.6333 112.827 34.5 113.18 33.14 113.18C32.0733 113.18 31.1267 112.947 30.3 112.48C29.4733 112 28.8267 111.333 28.36 110.48C27.8933 109.613 27.66 108.607 27.66 107.46ZM39.6912 107.42C39.6912 106.3 39.9112 105.307 40.3512 104.44C40.8046 103.573 41.4113 102.907 42.1713 102.44C42.9446 101.973 43.8046 101.74 44.7513 101.74C45.5779 101.74 46.2979 101.907 46.9113 102.24C47.5379 102.573 48.0379 102.993 48.4113 103.5V101.92H51.2313V113H48.4113V111.38C48.0513 111.9 47.5513 112.333 46.9113 112.68C46.2846 113.013 45.5579 113.18 44.7313 113.18C43.7979 113.18 42.9446 112.94 42.1713 112.46C41.4113 111.98 40.8046 111.307 40.3512 110.44C39.9112 109.56 39.6912 108.553 39.6912 107.42ZM48.4113 107.46C48.4113 106.78 48.2779 106.2 48.0113 105.72C47.7446 105.227 47.3846 104.853 46.9313 104.6C46.4779 104.333 45.9913 104.2 45.4713 104.2C44.9513 104.2 44.4713 104.327 44.0312 104.58C43.5913 104.833 43.2313 105.207 42.9513 105.7C42.6846 106.18 42.5513 106.753 42.5513 107.42C42.5513 108.087 42.6846 108.673 42.9513 109.18C43.2313 109.673 43.5913 110.053 44.0312 110.32C44.4846 110.587 44.9646 110.72 45.4713 110.72C45.9913 110.72 46.4779 110.593 46.9313 110.34C47.3846 110.073 47.7446 109.7 48.0113 109.22C48.2779 108.727 48.4113 108.14 48.4113 107.46ZM56.7659 98.2V113H53.9659V98.2H56.7659ZM62.3323 98.2V113H59.5323V98.2H62.3323ZM66.3388 113.14C65.8321 113.14 65.4121 112.987 65.0788 112.68C64.7588 112.36 64.5988 111.967 64.5988 111.5C64.5988 111.033 64.7588 110.647 65.0788 110.34C65.4121 110.02 65.8321 109.86 66.3388 109.86C66.8321 109.86 67.2388 110.02 67.5588 110.34C67.8788 110.647 68.0388 111.033 68.0388 111.5C68.0388 111.967 67.8788 112.36 67.5588 112.68C67.2388 112.987 66.8321 113.14 66.3388 113.14ZM71.5341 113.14C71.0274 113.14 70.6074 112.987 70.2741 112.68C69.9541 112.36 69.7941 111.967 69.7941 111.5C69.7941 111.033 69.9541 110.647 70.2741 110.34C70.6074 110.02 71.0274 109.86 71.5341 109.86C72.0274 109.86 72.4341 110.02 72.7541 110.34C73.0741 110.647 73.2341 111.033 73.2341 111.5C73.2341 111.967 73.0741 112.36 72.7541 112.68C72.4341 112.987 72.0274 113.14 71.5341 113.14ZM76.7294 113.14C76.2227 113.14 75.8027 112.987 75.4694 112.68C75.1494 112.36 74.9894 111.967 74.9894 111.5C74.9894 111.033 75.1494 110.647 75.4694 110.34C75.8027 110.02 76.2227 109.86 76.7294 109.86C77.2227 109.86 77.6294 110.02 77.9494 110.34C78.2694 110.647 78.4294 111.033 78.4294 111.5C78.4294 111.967 78.2694 112.36 77.9494 112.68C77.6294 112.987 77.2227 113.14 76.7294 113.14Z" fill="white"/>
<path d="M276.274 28H174.04C170.976 28 168.542 30.4342 168.542 33.4984V95.0392C168.542 98.1033 170.976 100.538 174.04 100.538H210.638L207.116 111.706H196.978C196.205 111.706 195.489 112.336 195.489 113.195V114.054C195.489 114.827 196.119 115.543 196.978 115.543H205.856H244.373H253.25C254.023 115.543 254.739 114.913 254.739 114.054V113.195C254.739 112.422 254.109 111.706 253.25 111.706H243.199L239.676 100.538H276.303C279.367 100.538 281.801 98.1033 281.801 95.0392V33.4984C281.773 30.4342 279.338 28 276.274 28Z" fill="#1A989C"/>
<path d="M174.413 31.2361H275.874C277.134 31.2361 278.165 32.267 278.165 33.527V86.9922C278.165 88.2522 277.134 89.2831 275.874 89.2831H174.413C173.153 89.2831 172.122 88.2522 172.122 86.9922V33.4697C172.208 32.1524 173.239 31.2361 174.413 31.2361Z" fill="#E8EAF7"/>
<path d="M224.642 97.8742C226.303 97.8742 227.62 96.5283 227.62 94.896C227.62 93.2351 226.274 91.9178 224.642 91.9178C222.981 91.9178 221.664 93.2637 221.664 94.896C221.635 96.5569 222.981 97.8742 224.642 97.8742Z" fill="#E8EAF7"/>
<path d="M290.345 86C294.812 86 298.449 89.6083 298.449 94.1043V101.98C298.449 106.447 294.841 110.084 290.345 110.084C285.877 110.084 282.24 106.476 282.24 101.98V94.1043C282.24 89.6943 285.849 86 290.345 86Z" fill="#FFD5D4"/>
<path d="M298.821 119.419C299.451 119.419 299.909 118.961 299.909 118.388C299.909 118.245 299.823 117.988 299.766 117.844C297.246 112.661 291.032 110.542 285.849 113.062C283.729 114.093 282.069 115.811 281.066 117.844C280.751 118.388 280.98 119.018 281.524 119.248C281.668 119.333 281.839 119.391 282.069 119.391H298.821V119.419Z" fill="#FF7A82"/>
<path d="M292.607 94.2475C292.607 95.1066 293.323 95.8226 294.182 95.8226H298.592V94.1615C298.592 93.7033 298.506 93.2166 298.449 92.6725H294.125C293.237 92.6725 292.607 93.3884 292.607 94.2475Z" fill="#FF7A82"/>
<path d="M292.607 99.1445C292.607 100.004 293.323 100.719 294.182 100.719H298.592V97.5694H294.125C293.237 97.6267 292.607 98.3426 292.607 99.1445Z" fill="#FF7A82"/>
<path d="M292.607 104.07C292.607 104.929 293.323 105.645 294.182 105.645H297.704C298.163 104.7 298.42 103.612 298.478 102.581H294.067C293.237 102.581 292.607 103.211 292.607 104.07Z" fill="#FF7A82"/>
<path d="M288.14 94.2475C288.14 93.3884 287.424 92.6725 286.565 92.6725H282.327C282.241 93.1307 282.184 93.6174 282.184 94.1615V95.8226H286.594C287.424 95.7366 288.14 95.0494 288.14 94.2475Z" fill="#FF7A82"/>
<path d="M288.14 99.1445C288.14 98.2854 287.424 97.5694 286.565 97.5694H282.155V100.633H286.565C287.424 100.691 288.14 100.004 288.14 99.1445Z" fill="#FF7A82"/>
<path d="M288.139 104.07C288.139 103.211 287.424 102.495 286.564 102.495H282.24C282.326 103.583 282.555 104.614 283.013 105.559H286.536C287.424 105.588 288.139 104.958 288.139 104.07Z" fill="#FF7A82"/>
<path d="M290.345 115.009C282.957 115.009 277 109.024 277 101.636V100.691C277 99.8317 277.716 99.1158 278.575 99.1158C279.434 99.1158 280.15 99.8317 280.15 100.691V101.722C280.15 107.392 284.703 111.945 290.374 111.945C296.044 111.945 300.597 107.392 300.597 101.722V100.691C300.597 99.8317 301.313 99.1158 302.172 99.1158C303.031 99.1158 303.747 99.8317 303.747 100.691V101.722C303.69 109.024 297.733 115.009 290.345 115.009Z" fill="#FFD5D4"/>
<path d="M216.623 123.504H176.846C174.412 123.504 172.436 121.528 172.436 119.094C172.436 116.66 174.412 114.684 176.846 114.684H216.623V123.504Z" fill="#F8E7D8"/>
<path d="M148.41 113.997H218.427C218.571 113.997 218.743 114.14 218.743 114.312C218.743 114.455 218.599 114.627 218.427 114.627H176.933C174.498 114.627 172.522 116.603 172.522 119.037C172.522 121.471 174.498 123.447 176.933 123.447H218.513C218.657 123.447 218.828 123.59 218.828 123.762C218.828 123.905 218.685 124.077 218.513 124.077H148.41C145.976 124.077 144 122.101 144 119.667V118.407C144 116.03 145.976 113.997 148.41 113.997Z" fill="#12999E"/>
<path d="M184.722 121.557H216.709V121.156H184.722C184.636 121.156 184.493 121.242 184.493 121.385C184.464 121.471 184.55 121.557 184.722 121.557Z" fill="#DEBCA7"/>
<path d="M181.171 117.233H216.624V116.832H181.171C181.085 116.832 180.942 116.918 180.942 117.061C181.028 117.147 181.085 117.233 181.171 117.233Z" fill="#DEBCA7"/>
<path d="M177.334 119.352H216.624V118.951H177.334C177.248 118.951 177.105 119.037 177.105 119.18C177.076 119.18 177.162 119.352 177.334 119.352Z" fill="#DEBCA7"/>
<path d="M172.38 74.535L172.065 74.4492C171.349 74.306 170.661 74.6782 170.346 75.3942L168.37 81.1216C168.37 81.2075 168.284 81.2648 168.284 81.3507C169 81.8948 169.859 82.2957 170.719 82.4389C171.492 82.5821 172.294 82.5248 173.067 82.2957C173.067 82.2098 173.067 82.1526 173.067 82.0667L173.525 76.0242C173.554 75.3369 173.067 74.7069 172.38 74.535Z" fill="#D7D7E6"/>
<path d="M172.436 65.8008C172.579 65.5717 172.894 65.4858 173.152 65.6576C173.238 65.7435 173.295 65.7435 173.295 65.8008C173.61 66.4308 174.011 67.204 174.326 67.7767C174.87 69.1227 175.099 70.6119 174.87 72.0151C174.555 73.1033 174.011 74.1342 173.381 74.9933C173.295 75.0792 173.238 75.1365 173.152 75.1365C172.694 75.2797 172.121 75.2797 171.663 75.1365C170.718 74.9074 170.632 74.3632 170.632 74.3632C170.317 73.275 170.174 72.1582 170.174 70.9841C170.26 69.8959 170.632 68.7791 171.262 67.7482C171.749 67.1468 172.121 66.5167 172.436 65.8008Z" fill="#C7645D"/>
<path d="M164.762 104.174L168.227 81.7803C168.227 81.6372 168.313 81.5512 168.313 81.4653C169.659 82.5535 171.463 82.8685 173.096 82.4103C173.096 82.5535 173.096 82.6393 173.01 82.8112L167.655 104.833C167.425 105.606 166.624 106.093 165.85 105.864C165.135 105.52 164.676 104.89 164.762 104.174Z" fill="#2B31BA"/>
<path d="M162.643 63.8249L155.655 64.3403L158.748 106.924L165.735 106.408L162.643 63.8249Z" fill="#DADAED"/>
<path d="M158.519 69.896L156.085 70.0677L156.114 70.5259L158.548 70.354L158.519 69.896Z" fill="#989BD7"/>
<path d="M158.92 74.6211L156.485 74.7928L156.514 75.251L158.948 75.0791L158.92 74.6211Z" fill="#989BD7"/>
<path d="M159.235 79.4034L156.801 79.5752L156.829 80.0335L159.263 79.8616L159.235 79.4034Z" fill="#989BD7"/>
<path d="M159.55 84.2145L157.116 84.3862L157.144 84.8444L159.579 84.6725L159.55 84.2145Z" fill="#989BD7"/>
<path d="M159.922 88.9109L157.488 89.0828L157.516 89.5408L159.951 89.3691L159.922 88.9109Z" fill="#989BD7"/>
<path d="M160.237 93.7219L157.803 93.8937L157.832 94.3519L160.266 94.1801L160.237 93.7219Z" fill="#989BD7"/>
<path d="M160.638 98.4183L158.203 98.5902L158.232 99.0484L160.666 98.8765L160.638 98.4183Z" fill="#989BD7"/>
<path d="M155.655 78.4871L151.159 79.2602L157.03 112.88L161.526 112.107L155.655 78.4871Z" fill="#FFADB2"/>
<path d="M155.541 78.4584L151.074 79.2316L151.79 72.7882L152.735 72.6451L155.541 78.4584Z" fill="#EBDBCD"/>
<path d="M152.104 75.7951L152.734 75.337L153.279 75.4229L153.909 75.1078L152.734 72.6737L151.789 72.8169L151.56 75.4229L152.104 75.7951Z" fill="#FF7A82"/>
<path d="M152.419 90.4859H171.978C172.436 90.4859 172.837 90.8868 172.837 91.345V91.4309L170.231 112.336C170.088 113.281 169.286 114.054 168.341 114.054H155.999C155.054 114.054 154.195 113.338 154.109 112.336L151.589 91.4309C151.503 90.9727 151.818 90.5718 152.305 90.4859H152.419Z" fill="#FF7A82"/>
<path d="M268.306 130.833C269.022 130.833 269.566 130.289 269.566 129.573C269.566 129.429 269.48 129.172 269.423 129.028C266.502 122.986 259.285 120.466 253.243 123.358C250.809 124.532 248.833 126.508 247.573 129.028C247.258 129.658 247.487 130.374 248.117 130.689C248.26 130.775 248.518 130.833 248.661 130.833H268.306Z" fill="#FF7A82"/>
<path d="M258.541 124.16C264.927 124.16 270.081 118.977 270.081 112.591C270.081 106.205 264.898 101.021 258.541 101.021C252.183 101.021 247 106.205 247 112.591C247 118.977 252.183 124.16 258.541 124.16Z" fill="#FF7A82"/>
<path d="M250.837 121.239C252.641 122.814 254.846 123.845 257.194 124.074H259.8C262.148 123.845 264.439 122.814 266.158 121.153V103.942C261.748 100.019 255.161 100.019 250.751 103.942V121.239H250.837Z" fill="#FFD5D5"/>
<path d="M258.54 118.032C261.318 118.032 263.58 115.769 263.58 112.992C263.58 110.214 261.318 107.952 258.54 107.952C255.762 107.952 253.5 110.214 253.5 112.992C253.529 115.769 255.762 118.032 258.54 118.032Z" fill="#BB4847"/>
<path d="M258.54 116.056C260.229 116.056 261.604 114.681 261.604 112.992C261.604 111.302 260.229 109.928 258.54 109.928C256.85 109.928 255.476 111.302 255.476 112.992C255.476 114.681 256.85 116.056 258.54 116.056Z" fill="#FF5856"/>
</svg>
