<svg width="320" height="153" viewBox="0 0 320 153" fill="none" xmlns="http://www.w3.org/2000/svg">
<rect width="320" height="153" rx="20" fill="#4CB2B6"/>
<path d="M39.48 39.04L34.76 48.14V53H31.96V48.14L27.22 39.04H30.38L33.38 45.42L36.36 39.04H39.48ZM46.0148 53.18C44.9482 53.18 43.9882 52.9467 43.1348 52.48C42.2815 52 41.6082 51.3267 41.1148 50.46C40.6348 49.5933 40.3948 48.5933 40.3948 47.46C40.3948 46.3267 40.6415 45.3267 41.1348 44.46C41.6415 43.5933 42.3282 42.9267 43.1948 42.46C44.0615 41.98 45.0282 41.74 46.0948 41.74C47.1615 41.74 48.1282 41.98 48.9948 42.46C49.8615 42.9267 50.5415 43.5933 51.0348 44.46C51.5415 45.3267 51.7948 46.3267 51.7948 47.46C51.7948 48.5933 51.5348 49.5933 51.0148 50.46C50.5082 51.3267 49.8148 52 48.9348 52.48C48.0682 52.9467 47.0948 53.18 46.0148 53.18ZM46.0148 50.74C46.5215 50.74 46.9948 50.62 47.4348 50.38C47.8882 50.1267 48.2482 49.7533 48.5148 49.26C48.7815 48.7667 48.9148 48.1667 48.9148 47.46C48.9148 46.4067 48.6348 45.6 48.0748 45.04C47.5282 44.4667 46.8548 44.18 46.0548 44.18C45.2548 44.18 44.5815 44.4667 44.0348 45.04C43.5015 45.6 43.2348 46.4067 43.2348 47.46C43.2348 48.5133 43.4948 49.3267 44.0148 49.9C44.5482 50.46 45.2148 50.74 46.0148 50.74ZM64.3088 41.92V53H61.4888V51.6C61.1288 52.08 60.6554 52.46 60.0688 52.74C59.4954 53.0067 58.8688 53.14 58.1888 53.14C57.3221 53.14 56.5554 52.96 55.8888 52.6C55.2221 52.2267 54.6954 51.6867 54.3088 50.98C53.9354 50.26 53.7488 49.4067 53.7488 48.42V41.92H56.5488V48.02C56.5488 48.9 56.7688 49.58 57.2088 50.06C57.6488 50.5267 58.2488 50.76 59.0088 50.76C59.7821 50.76 60.3888 50.5267 60.8288 50.06C61.2688 49.58 61.4888 48.9 61.4888 48.02V41.92H64.3088ZM71.117 47.46C71.117 46.3133 71.3504 45.3133 71.817 44.46C72.2837 43.5933 72.9304 42.9267 73.757 42.46C74.5837 41.98 75.5304 41.74 76.597 41.74C77.9704 41.74 79.1037 42.0867 79.997 42.78C80.9037 43.46 81.5104 44.42 81.817 45.66H78.797C78.637 45.18 78.3637 44.8067 77.977 44.54C77.6037 44.26 77.137 44.12 76.577 44.12C75.777 44.12 75.1437 44.4133 74.677 45C74.2104 45.5733 73.977 46.3933 73.977 47.46C73.977 48.5133 74.2104 49.3333 74.677 49.92C75.1437 50.4933 75.777 50.78 76.577 50.78C77.7104 50.78 78.4504 50.2733 78.797 49.26H81.817C81.5104 50.46 80.9037 51.4133 79.997 52.12C79.0904 52.8267 77.957 53.18 76.597 53.18C75.5304 53.18 74.5837 52.9467 73.757 52.48C72.9304 52 72.2837 51.3333 71.817 50.48C71.3504 49.6133 71.117 48.6067 71.117 47.46ZM83.1483 47.42C83.1483 46.3 83.3683 45.3067 83.8083 44.44C84.2616 43.5733 84.8683 42.9067 85.6283 42.44C86.4016 41.9733 87.2616 41.74 88.2083 41.74C89.0349 41.74 89.7549 41.9067 90.3683 42.24C90.9949 42.5733 91.4949 42.9933 91.8683 43.5V41.92H94.6883V53H91.8683V51.38C91.5083 51.9 91.0083 52.3333 90.3683 52.68C89.7416 53.0133 89.0149 53.18 88.1883 53.18C87.2549 53.18 86.4016 52.94 85.6283 52.46C84.8683 51.98 84.2616 51.3067 83.8083 50.44C83.3683 49.56 83.1483 48.5533 83.1483 47.42ZM91.8683 47.46C91.8683 46.78 91.7349 46.2 91.4683 45.72C91.2016 45.2267 90.8416 44.8533 90.3883 44.6C89.9349 44.3333 89.4483 44.2 88.9283 44.2C88.4083 44.2 87.9283 44.3267 87.4883 44.58C87.0483 44.8333 86.6883 45.2067 86.4083 45.7C86.1416 46.18 86.0083 46.7533 86.0083 47.42C86.0083 48.0867 86.1416 48.6733 86.4083 49.18C86.6883 49.6733 87.0483 50.0533 87.4883 50.32C87.9416 50.5867 88.4216 50.72 88.9283 50.72C89.4483 50.72 89.9349 50.5933 90.3883 50.34C90.8416 50.0733 91.2016 49.7 91.4683 49.22C91.7349 48.7267 91.8683 48.14 91.8683 47.46ZM103.563 41.76C104.883 41.76 105.95 42.18 106.763 43.02C107.576 43.8467 107.983 45.0067 107.983 46.5V53H105.183V46.88C105.183 46 104.963 45.3267 104.523 44.86C104.083 44.38 103.483 44.14 102.723 44.14C101.95 44.14 101.336 44.38 100.883 44.86C100.443 45.3267 100.223 46 100.223 46.88V53H97.423V41.92H100.223V43.3C100.596 42.82 101.07 42.4467 101.643 42.18C102.23 41.9 102.87 41.76 103.563 41.76ZM118.211 38.2V53H115.411V38.2H118.211ZM131.278 47.22C131.278 47.62 131.251 47.98 131.198 48.3H123.098C123.164 49.1 123.444 49.7267 123.938 50.18C124.431 50.6333 125.038 50.86 125.758 50.86C126.798 50.86 127.538 50.4133 127.978 49.52H130.998C130.678 50.5867 130.064 51.4667 129.158 52.16C128.251 52.84 127.138 53.18 125.818 53.18C124.751 53.18 123.791 52.9467 122.938 52.48C122.098 52 121.438 51.3267 120.958 50.46C120.491 49.5933 120.258 48.5933 120.258 47.46C120.258 46.3133 120.491 45.3067 120.958 44.44C121.424 43.5733 122.078 42.9067 122.918 42.44C123.758 41.9733 124.724 41.74 125.818 41.74C126.871 41.74 127.811 41.9667 128.638 42.42C129.478 42.8733 130.124 43.52 130.578 44.36C131.044 45.1867 131.278 46.14 131.278 47.22ZM128.378 46.42C128.364 45.7 128.104 45.1267 127.598 44.7C127.091 44.26 126.471 44.04 125.738 44.04C125.044 44.04 124.458 44.2533 123.978 44.68C123.511 45.0933 123.224 45.6733 123.118 46.42H128.378ZM132.601 47.42C132.601 46.3 132.821 45.3067 133.261 44.44C133.715 43.5733 134.321 42.9067 135.081 42.44C135.855 41.9733 136.715 41.74 137.661 41.74C138.488 41.74 139.208 41.9067 139.821 42.24C140.448 42.5733 140.948 42.9933 141.321 43.5V41.92H144.141V53H141.321V51.38C140.961 51.9 140.461 52.3333 139.821 52.68C139.195 53.0133 138.468 53.18 137.641 53.18C136.708 53.18 135.855 52.94 135.081 52.46C134.321 51.98 133.715 51.3067 133.261 50.44C132.821 49.56 132.601 48.5533 132.601 47.42ZM141.321 47.46C141.321 46.78 141.188 46.2 140.921 45.72C140.655 45.2267 140.295 44.8533 139.841 44.6C139.388 44.3333 138.901 44.2 138.381 44.2C137.861 44.2 137.381 44.3267 136.941 44.58C136.501 44.8333 136.141 45.2067 135.861 45.7C135.595 46.18 135.461 46.7533 135.461 47.42C135.461 48.0867 135.595 48.6733 135.861 49.18C136.141 49.6733 136.501 50.0533 136.941 50.32C137.395 50.5867 137.875 50.72 138.381 50.72C138.901 50.72 139.388 50.5933 139.841 50.34C140.295 50.0733 140.655 49.7 140.921 49.22C141.188 48.7267 141.321 48.14 141.321 47.46ZM149.676 43.64C150.036 43.0533 150.503 42.5933 151.076 42.26C151.663 41.9267 152.329 41.76 153.076 41.76V44.7H152.336C151.456 44.7 150.789 44.9067 150.336 45.32C149.896 45.7333 149.676 46.4533 149.676 47.48V53H146.876V41.92H149.676V43.64ZM161.102 41.76C162.422 41.76 163.489 42.18 164.302 43.02C165.115 43.8467 165.522 45.0067 165.522 46.5V53H162.722V46.88C162.722 46 162.502 45.3267 162.062 44.86C161.622 44.38 161.022 44.14 160.262 44.14C159.489 44.14 158.875 44.38 158.422 44.86C157.982 45.3267 157.762 46 157.762 46.88V53H154.962V41.92H157.762V43.3C158.135 42.82 158.609 42.4467 159.182 42.18C159.769 41.9 160.409 41.76 161.102 41.76ZM27.66 77.42C27.66 76.3 27.88 75.3067 28.32 74.44C28.7733 73.5733 29.38 72.9067 30.14 72.44C30.9133 71.9733 31.7733 71.74 32.72 71.74C33.5467 71.74 34.2667 71.9067 34.88 72.24C35.5067 72.5733 36.0067 72.9933 36.38 73.5V71.92H39.2V83H36.38V81.38C36.02 81.9 35.52 82.3333 34.88 82.68C34.2533 83.0133 33.5267 83.18 32.7 83.18C31.7667 83.18 30.9133 82.94 30.14 82.46C29.38 81.98 28.7733 81.3067 28.32 80.44C27.88 79.56 27.66 78.5533 27.66 77.42ZM36.38 77.46C36.38 76.78 36.2467 76.2 35.98 75.72C35.7133 75.2267 35.3533 74.8533 34.9 74.6C34.4467 74.3333 33.96 74.2 33.44 74.2C32.92 74.2 32.44 74.3267 32 74.58C31.56 74.8333 31.2 75.2067 30.92 75.7C30.6533 76.18 30.52 76.7533 30.52 77.42C30.52 78.0867 30.6533 78.6733 30.92 79.18C31.2 79.6733 31.56 80.0533 32 80.32C32.4533 80.5867 32.9333 80.72 33.44 80.72C33.96 80.72 34.4467 80.5933 34.9 80.34C35.3533 80.0733 35.7133 79.7 35.98 79.22C36.2467 78.7267 36.38 78.14 36.38 77.46ZM48.0747 71.76C49.3947 71.76 50.4614 72.18 51.2747 73.02C52.088 73.8467 52.4947 75.0067 52.4947 76.5V83H49.6947V76.88C49.6947 76 49.4747 75.3267 49.0347 74.86C48.5947 74.38 47.9947 74.14 47.2347 74.14C46.4614 74.14 45.848 74.38 45.3947 74.86C44.9547 75.3267 44.7347 76 44.7347 76.88V83H41.9347V71.92H44.7347V73.3C45.108 72.82 45.5814 72.4467 46.1547 72.18C46.7414 71.9 47.3814 71.76 48.0747 71.76ZM65.7573 71.92L58.8973 88.24H55.9173L58.3173 82.72L53.8773 71.92H57.0173L59.8773 79.66L62.7773 71.92H65.7573ZM70.5267 74.22V79.58C70.5267 79.9533 70.6134 80.2267 70.7867 80.4C70.9734 80.56 71.2801 80.64 71.7067 80.64H73.0067V83H71.2467C68.8867 83 67.7067 81.8533 67.7067 79.56V74.22H66.3867V71.92H67.7067V69.18H70.5267V71.92H73.0067V74.22H70.5267ZM76.4406 70.6C75.9473 70.6 75.534 70.4467 75.2006 70.14C74.8806 69.82 74.7206 69.4267 74.7206 68.96C74.7206 68.4933 74.8806 68.1067 75.2006 67.8C75.534 67.48 75.9473 67.32 76.4406 67.32C76.934 67.32 77.3406 67.48 77.6606 67.8C77.994 68.1067 78.1606 68.4933 78.1606 68.96C78.1606 69.4267 77.994 69.82 77.6606 70.14C77.3406 70.4467 76.934 70.6 76.4406 70.6ZM77.8206 71.92V83H75.0206V71.92H77.8206ZM94.347 71.76C95.707 71.76 96.8004 72.18 97.627 73.02C98.467 73.8467 98.887 75.0067 98.887 76.5V83H96.087V76.88C96.087 76.0133 95.867 75.3533 95.427 74.9C94.987 74.4333 94.387 74.2 93.627 74.2C92.867 74.2 92.2604 74.4333 91.807 74.9C91.367 75.3533 91.147 76.0133 91.147 76.88V83H88.347V76.88C88.347 76.0133 88.127 75.3533 87.687 74.9C87.247 74.4333 86.647 74.2 85.887 74.2C85.1137 74.2 84.5004 74.4333 84.047 74.9C83.607 75.3533 83.387 76.0133 83.387 76.88V83H80.587V71.92H83.387V73.26C83.747 72.7933 84.207 72.4267 84.767 72.16C85.3404 71.8933 85.967 71.76 86.647 71.76C87.5137 71.76 88.287 71.9467 88.967 72.32C89.647 72.68 90.1737 73.2 90.547 73.88C90.907 73.24 91.427 72.7267 92.107 72.34C92.8004 71.9533 93.547 71.76 94.347 71.76ZM111.844 77.22C111.844 77.62 111.817 77.98 111.764 78.3H103.664C103.731 79.1 104.011 79.7267 104.504 80.18C104.997 80.6333 105.604 80.86 106.324 80.86C107.364 80.86 108.104 80.4133 108.544 79.52H111.564C111.244 80.5867 110.631 81.4667 109.724 82.16C108.817 82.84 107.704 83.18 106.384 83.18C105.317 83.18 104.357 82.9467 103.504 82.48C102.664 82 102.004 81.3267 101.524 80.46C101.057 79.5933 100.824 78.5933 100.824 77.46C100.824 76.3133 101.057 75.3067 101.524 74.44C101.991 73.5733 102.644 72.9067 103.484 72.44C104.324 71.9733 105.291 71.74 106.384 71.74C107.437 71.74 108.377 71.9667 109.204 72.42C110.044 72.8733 110.691 73.52 111.144 74.36C111.611 75.1867 111.844 76.14 111.844 77.22ZM108.944 76.42C108.931 75.7 108.671 75.1267 108.164 74.7C107.657 74.26 107.037 74.04 106.304 74.04C105.611 74.04 105.024 74.2533 104.544 74.68C104.077 75.0933 103.791 75.6733 103.684 76.42H108.944ZM117.933 77.42C117.933 76.3 118.153 75.3067 118.593 74.44C119.047 73.5733 119.653 72.9067 120.413 72.44C121.187 71.9733 122.047 71.74 122.993 71.74C123.82 71.74 124.54 71.9067 125.153 72.24C125.78 72.5733 126.28 72.9933 126.653 73.5V71.92H129.473V83H126.653V81.38C126.293 81.9 125.793 82.3333 125.153 82.68C124.527 83.0133 123.8 83.18 122.973 83.18C122.04 83.18 121.187 82.94 120.413 82.46C119.653 81.98 119.047 81.3067 118.593 80.44C118.153 79.56 117.933 78.5533 117.933 77.42ZM126.653 77.46C126.653 76.78 126.52 76.2 126.253 75.72C125.987 75.2267 125.627 74.8533 125.173 74.6C124.72 74.3333 124.233 74.2 123.713 74.2C123.193 74.2 122.713 74.3267 122.273 74.58C121.833 74.8333 121.473 75.2067 121.193 75.7C120.927 76.18 120.793 76.7533 120.793 77.42C120.793 78.0867 120.927 78.6733 121.193 79.18C121.473 79.6733 121.833 80.0533 122.273 80.32C122.727 80.5867 123.207 80.72 123.713 80.72C124.233 80.72 124.72 80.5933 125.173 80.34C125.627 80.0733 125.987 79.7 126.253 79.22C126.52 78.7267 126.653 78.14 126.653 77.46ZM138.348 71.76C139.668 71.76 140.735 72.18 141.548 73.02C142.361 73.8467 142.768 75.0067 142.768 76.5V83H139.968V76.88C139.968 76 139.748 75.3267 139.308 74.86C138.868 74.38 138.268 74.14 137.508 74.14C136.735 74.14 136.121 74.38 135.668 74.86C135.228 75.3267 135.008 76 135.008 76.88V83H132.208V71.92H135.008V73.3C135.381 72.82 135.855 72.4467 136.428 72.18C137.015 71.9 137.655 71.76 138.348 71.76ZM144.711 77.42C144.711 76.3 144.931 75.3067 145.371 74.44C145.824 73.5733 146.437 72.9067 147.211 72.44C147.984 71.9733 148.844 71.74 149.791 71.74C150.511 71.74 151.197 71.9 151.851 72.22C152.504 72.5267 153.024 72.94 153.411 73.46V68.2H156.251V83H153.411V81.36C153.064 81.9067 152.577 82.3467 151.951 82.68C151.324 83.0133 150.597 83.18 149.771 83.18C148.837 83.18 147.984 82.94 147.211 82.46C146.437 81.98 145.824 81.3067 145.371 80.44C144.931 79.56 144.711 78.5533 144.711 77.42ZM153.431 77.46C153.431 76.78 153.297 76.2 153.031 75.72C152.764 75.2267 152.404 74.8533 151.951 74.6C151.497 74.3333 151.011 74.2 150.491 74.2C149.971 74.2 149.491 74.3267 149.051 74.58C148.611 74.8333 148.251 75.2067 147.971 75.7C147.704 76.18 147.571 76.7533 147.571 77.42C147.571 78.0867 147.704 78.6733 147.971 79.18C148.251 79.6733 148.611 80.0533 149.051 80.32C149.504 80.5867 149.984 80.72 150.491 80.72C151.011 80.72 151.497 80.5933 151.951 80.34C152.404 80.0733 152.764 79.7 153.031 79.22C153.297 78.7267 153.431 78.14 153.431 77.46ZM27.66 107.42C27.66 106.3 27.88 105.307 28.32 104.44C28.7733 103.573 29.38 102.907 30.14 102.44C30.9133 101.973 31.7733 101.74 32.72 101.74C33.5467 101.74 34.2667 101.907 34.88 102.24C35.5067 102.573 36.0067 102.993 36.38 103.5V101.92H39.2V113H36.38V111.38C36.02 111.9 35.52 112.333 34.88 112.68C34.2533 113.013 33.5267 113.18 32.7 113.18C31.7667 113.18 30.9133 112.94 30.14 112.46C29.38 111.98 28.7733 111.307 28.32 110.44C27.88 109.56 27.66 108.553 27.66 107.42ZM36.38 107.46C36.38 106.78 36.2467 106.2 35.98 105.72C35.7133 105.227 35.3533 104.853 34.9 104.6C34.4467 104.333 33.96 104.2 33.44 104.2C32.92 104.2 32.44 104.327 32 104.58C31.56 104.833 31.2 105.207 30.92 105.7C30.6533 106.18 30.52 106.753 30.52 107.42C30.52 108.087 30.6533 108.673 30.92 109.18C31.2 109.673 31.56 110.053 32 110.32C32.4533 110.587 32.9333 110.72 33.44 110.72C33.96 110.72 34.4467 110.593 34.9 110.34C35.3533 110.073 35.7133 109.7 35.98 109.22C36.2467 108.727 36.38 108.14 36.38 107.46ZM48.0747 101.76C49.3947 101.76 50.4614 102.18 51.2747 103.02C52.088 103.847 52.4947 105.007 52.4947 106.5V113H49.6947V106.88C49.6947 106 49.4747 105.327 49.0347 104.86C48.5947 104.38 47.9947 104.14 47.2347 104.14C46.4614 104.14 45.848 104.38 45.3947 104.86C44.9547 105.327 44.7347 106 44.7347 106.88V113H41.9347V101.92H44.7347V103.3C45.108 102.82 45.5814 102.447 46.1547 102.18C46.7414 101.9 47.3814 101.76 48.0747 101.76ZM65.7573 101.92L58.8973 118.24H55.9173L58.3173 112.72L53.8773 101.92H57.0173L59.8773 109.66L62.7773 101.92H65.7573ZM82.6267 101.92L79.3867 113H76.3667L74.3467 105.26L72.3267 113H69.2867L66.0267 101.92H68.8667L70.8267 110.36L72.9467 101.92H75.9067L77.9867 110.34L79.9467 101.92H82.6267ZM90.3817 101.76C91.2217 101.76 91.9684 101.947 92.6217 102.32C93.2751 102.68 93.7817 103.22 94.1417 103.94C94.5151 104.647 94.7017 105.5 94.7017 106.5V113H91.9017V106.88C91.9017 106 91.6817 105.327 91.2417 104.86C90.8017 104.38 90.2017 104.14 89.4417 104.14C88.6684 104.14 88.0551 104.38 87.6017 104.86C87.1617 105.327 86.9417 106 86.9417 106.88V113H84.1417V98.2H86.9417V103.3C87.3017 102.82 87.7817 102.447 88.3817 102.18C88.9817 101.9 89.6484 101.76 90.3817 101.76ZM107.664 107.22C107.664 107.62 107.638 107.98 107.584 108.3H99.4844C99.551 109.1 99.831 109.727 100.324 110.18C100.818 110.633 101.424 110.86 102.144 110.86C103.184 110.86 103.924 110.413 104.364 109.52H107.384C107.064 110.587 106.451 111.467 105.544 112.16C104.638 112.84 103.524 113.18 102.204 113.18C101.138 113.18 100.178 112.947 99.3244 112.48C98.4844 112 97.8244 111.327 97.3444 110.46C96.8777 109.593 96.6444 108.593 96.6444 107.46C96.6444 106.313 96.8777 105.307 97.3444 104.44C97.811 103.573 98.4644 102.907 99.3044 102.44C100.144 101.973 101.111 101.74 102.204 101.74C103.258 101.74 104.198 101.967 105.024 102.42C105.864 102.873 106.511 103.52 106.964 104.36C107.431 105.187 107.664 106.14 107.664 107.22ZM104.764 106.42C104.751 105.7 104.491 105.127 103.984 104.7C103.478 104.26 102.858 104.04 102.124 104.04C101.431 104.04 100.844 104.253 100.364 104.68C99.8977 105.093 99.611 105.673 99.5044 106.42H104.764ZM112.508 103.64C112.868 103.053 113.335 102.593 113.908 102.26C114.495 101.927 115.161 101.76 115.908 101.76V104.7H115.168C114.288 104.7 113.621 104.907 113.168 105.32C112.728 105.733 112.508 106.453 112.508 107.48V113H109.708V101.92H112.508V103.64ZM128.094 107.22C128.094 107.62 128.067 107.98 128.014 108.3H119.914C119.981 109.1 120.261 109.727 120.754 110.18C121.247 110.633 121.854 110.86 122.574 110.86C123.614 110.86 124.354 110.413 124.794 109.52H127.814C127.494 110.587 126.881 111.467 125.974 112.16C125.067 112.84 123.954 113.18 122.634 113.18C121.567 113.18 120.607 112.947 119.754 112.48C118.914 112 118.254 111.327 117.774 110.46C117.307 109.593 117.074 108.593 117.074 107.46C117.074 106.313 117.307 105.307 117.774 104.44C118.241 103.573 118.894 102.907 119.734 102.44C120.574 101.973 121.541 101.74 122.634 101.74C123.687 101.74 124.627 101.967 125.454 102.42C126.294 102.873 126.941 103.52 127.394 104.36C127.861 105.187 128.094 106.14 128.094 107.22ZM125.194 106.42C125.181 105.7 124.921 105.127 124.414 104.7C123.907 104.26 123.287 104.04 122.554 104.04C121.861 104.04 121.274 104.253 120.794 104.68C120.327 105.093 120.041 105.673 119.934 106.42H125.194ZM133.758 98.8L133.438 108.46H131.078L130.738 98.8H133.758ZM132.318 113.14C131.811 113.14 131.391 112.987 131.058 112.68C130.738 112.36 130.578 111.967 130.578 111.5C130.578 111.033 130.738 110.647 131.058 110.34C131.391 110.02 131.811 109.86 132.318 109.86C132.811 109.86 133.218 110.02 133.538 110.34C133.858 110.647 134.018 111.033 134.018 111.5C134.018 111.967 133.858 112.36 133.538 112.68C133.218 112.987 132.811 113.14 132.318 113.14Z" fill="white"/>
<path d="M202.226 44.2475L259.104 16.2064L272.513 67.0103L207.912 64.6816L202.226 44.2475Z" fill="#F7E8DC"/>
<path d="M242.144 30.1396L239.951 46.4986C239.931 46.712 240.028 46.9255 240.222 47.0031C240.863 47.2748 242.357 47.857 244.026 47.954C245.384 48.0316 247.771 47.6629 249.149 47.236C249.401 47.1584 249.576 46.8673 249.479 46.615L243.075 30.0232C242.9 29.5574 242.221 29.6545 242.144 30.1396Z" fill="#110580"/>
<path d="M249.517 44.3251C254.815 44.3251 259.123 40.0171 259.123 34.7193C259.123 29.4216 254.815 25.1136 249.517 25.1136C244.219 25.1136 239.911 29.4216 239.911 34.7193C239.911 40.0365 244.2 44.3251 249.517 44.3251Z" fill="#FCB58A"/>
<path d="M235.118 108.655H221.98V118.591H235.118V108.655Z" fill="#F8D7BC"/>
<path d="M220.7 107.879V108.635H235.138V118.571H220.7V119.328H276.258V107.879H220.7Z" fill="#FF7A82"/>
<path d="M215.188 101.999C215.518 104.036 215.906 106.054 216.391 108.053C217.245 111.585 222.679 110.091 221.825 106.559C221.34 104.56 220.952 102.542 220.622 100.504C220.389 99.0102 218.507 98.1758 217.148 98.5251C215.537 98.9908 214.936 100.504 215.188 101.999Z" fill="#E3996D"/>
<path d="M301 81.3705L291.2 87.0564L291.026 75.4712L301 81.3705Z" fill="#12999E"/>
<path d="M247.79 72.0753C247.732 72.0559 247.674 72.017 247.615 72.017C246.684 71.8618 239.504 70.6198 232.052 69.1838C228.734 68.5434 219.05 65.8072 213.966 67.7866C208.901 69.766 207.892 72.7351 207.446 74.8115C207.058 76.6938 207.737 83.0783 209.386 89.5598C210.861 95.362 214.471 102.717 215.208 104.192C215.286 104.366 215.48 104.483 215.674 104.502C216.139 104.522 217.071 104.521 218.255 104.153C219.322 103.842 220.447 103.241 220.952 102.95C221.127 102.853 221.224 102.678 221.224 102.484C221.243 100.873 221.379 93.3244 221.185 88.0267C220.991 82.8842 219.225 81.1765 219.225 81.1765C219.225 81.1765 225.318 87.9491 231.547 89.7926C236.477 91.248 246.8 94.4888 251.07 94.3723C256.018 94.2365 259.608 92.1407 261.199 89.618C264.168 84.9606 262.325 78.0522 261.859 76.5386C261.801 76.3445 261.646 76.2087 261.452 76.1699C259.821 75.7817 252.079 73.9382 250.08 73.1038C248.469 72.4052 247.945 72.1529 247.79 72.0753Z" fill="#FF8A91"/>
<path d="M261.646 69.9017C261.646 69.9017 261.529 71.1825 261.665 73.0066C261.781 74.8501 262.073 76.2473 262.073 76.2473C262.073 76.2473 254.66 75.0442 251.846 73.9575C248.295 72.5797 247.732 72.0169 247.732 72.0169C247.732 72.0169 248.392 70.5227 248.644 69.4554C248.818 68.6597 248.916 66.4863 248.916 66.4863C248.916 66.4863 252.758 68.3104 255.436 68.9508C258.114 69.5912 261.646 69.9017 261.646 69.9017Z" fill="#FCB58A"/>
<path d="M197.161 28.6647C201.119 28.6647 204.321 25.4628 204.321 21.504C204.321 17.5453 201.119 14.3434 197.161 14.3434C193.202 14.3434 190 17.5453 190 21.504C190 25.4628 193.202 28.6647 197.161 28.6647Z" fill="#12999E"/>
<path d="M253.165 136.385H209.211V120.337H253.146C255.339 120.337 257.105 122.103 257.105 124.296V132.427C257.143 134.62 255.358 136.385 253.165 136.385Z" fill="#F8ECE2"/>
<path d="M279.208 119.328H207.31C207.039 119.328 206.806 119.541 206.806 119.833C206.806 120.104 207.019 120.337 207.31 120.337H216.14H249.091C253.534 120.337 257.125 123.927 257.125 128.371C257.125 132.815 253.534 136.405 249.091 136.405H208.397H207.31C207.039 136.405 206.806 136.618 206.806 136.909C206.806 137.201 207.019 137.414 207.31 137.414H279.208C283.652 137.414 287.242 133.824 287.242 129.38V127.381C287.242 122.918 283.652 119.328 279.208 119.328Z" fill="#12999E"/>
<path d="M250.643 123.811H209.231V123.248H250.643C250.798 123.248 250.915 123.364 250.915 123.52C250.915 123.694 250.798 123.811 250.643 123.811Z" fill="#EBD0BE"/>
<path d="M231.528 116.223H221.98V115.66H231.528C231.683 115.66 231.8 115.777 231.8 115.932C231.8 116.087 231.683 116.223 231.528 116.223Z" fill="#E0C1A6"/>
<path d="M229.277 113.079H221.98V112.517H229.257C229.413 112.517 229.529 112.633 229.529 112.788C229.549 112.963 229.432 113.079 229.277 113.079Z" fill="#E0C1A6"/>
<path d="M253.651 130.059H209.231V129.496H253.651C253.806 129.496 253.922 129.613 253.922 129.768C253.922 129.923 253.806 130.059 253.651 130.059Z" fill="#EBD0BE"/>
<path d="M248.178 133.533H209.231V132.97H248.178C248.334 132.97 248.45 133.087 248.45 133.242C248.45 133.397 248.334 133.533 248.178 133.533Z" fill="#EBD0BE"/>
<path d="M252.312 126.993H209.231V126.43H252.312C252.467 126.43 252.583 126.547 252.583 126.702C252.583 126.857 252.467 126.993 252.312 126.993Z" fill="#EBD0BE"/>
<path d="M247.595 106.967H230.693V101.009H247.595C248.061 101.009 248.43 101.378 248.43 101.843V106.132C248.43 106.598 248.042 106.967 247.595 106.967Z" fill="#F8D0B3"/>
<path d="M278.044 100.097H244.472H229.743H229.297C229.044 100.097 228.831 100.31 228.831 100.563C228.831 100.815 229.044 101.028 229.297 101.028H230.694H246.762C247.674 101.028 248.431 101.785 248.431 102.697V105.298C248.431 106.21 247.674 106.967 246.762 106.967H243.094H229.413C229.161 106.967 228.947 107.18 228.947 107.432C228.947 107.685 229.161 107.898 229.413 107.898H229.762H244.588H278.044C278.956 107.898 279.712 107.141 279.712 106.229V101.785C279.712 100.834 278.956 100.097 278.044 100.097Z" fill="#FF5856"/>
<path d="M219.885 63.6338C224.872 61.4021 230.636 64.3906 235.603 65.2444C240.474 66.0789 245.811 65.4191 249.187 61.4409C249.944 60.5289 250.08 59.2093 249.187 58.3166C248.392 57.521 246.839 57.4046 246.063 58.3166C242.881 62.0619 237.932 61.3827 233.663 60.296C228.307 58.9182 222.99 57.424 217.673 59.8108C216.586 60.296 216.314 61.8872 216.877 62.8381C217.517 63.9637 218.798 64.1189 219.885 63.6338Z" fill="#F0A173"/>
<path d="M221.477 65.0115C226.891 63.2456 232.227 66.7386 237.292 68.2329C242.144 69.6495 247.519 69.436 251.303 65.7489C253.341 63.7696 250.216 60.6453 248.179 62.6246C244.763 65.943 239.776 64.5458 235.856 63.0904C230.869 61.2468 225.668 58.9958 220.293 60.7617C217.634 61.6155 218.779 65.9042 221.477 65.0115Z" fill="#FCB58A"/>
<path d="M255.552 48.3421C256.018 48.4779 260.248 50.1856 261.82 55.8326C263.14 60.49 264.246 67.4178 264.595 69.6883C264.673 70.1152 264.382 70.5421 263.935 70.6198C262.674 70.872 259.938 71.2601 256.503 70.9496C251.71 70.5227 248.663 69.2225 248.663 69.2225L248.78 68.1358L248.353 68.3299C248.023 68.4851 247.615 68.3881 247.402 68.097L244.277 63.9442C244.064 63.6725 244.161 63.2844 244.452 63.1292L244.491 63.1098L241.968 60.0825C241.735 59.7914 241.755 59.3645 242.026 59.1122C242.919 58.2584 244.86 56.2984 246.237 54.416C247.246 53.0577 248.566 50.5737 249.381 49.6228C251.05 47.6435 254.31 47.9734 255.552 48.3421Z" fill="white"/>
<path d="M255.707 50.108L252.641 42.2099L246.8 42.1711L249.866 50.0692L255.707 50.108Z" fill="#FCB58A"/>
<path d="M250.352 51.8351C251.225 52.0486 252.409 51.2141 253.398 50.7678C254.466 50.302 255.688 50.108 255.688 50.108L249.847 50.0692C249.847 50.0692 249.42 51.6216 250.352 51.8351Z" fill="#FCB58A"/>
<path d="M248.294 58.2196C248.294 58.2196 247.712 59.7914 247.13 60.6647C246.548 61.5379 244.53 63.0904 244.53 63.0904L243.773 62.1783C243.773 62.1783 245.17 61.4603 246.16 60.5094C246.897 59.8302 248.294 58.2196 248.294 58.2196Z" fill="#E0E0E0"/>
<path d="M248.799 68.1165C248.799 68.1165 250.604 67.0492 251.419 66.1759C252.234 65.3026 253.36 63.5367 253.36 63.5367C253.36 63.5367 252.118 66.2147 251.516 67.379C250.662 68.9703 250.022 69.6689 250.022 69.6689L248.722 69.2032C248.722 69.2032 248.741 68.9315 248.78 68.6792C248.78 68.4464 248.799 68.1165 248.799 68.1165Z" fill="#E0E0E0"/>
<path d="M215.577 63.0321C216.838 62.2365 218.158 61.6155 219.594 61.1692C220.778 60.8004 220.273 58.9181 219.07 59.2674C217.498 59.7526 216.004 60.4317 214.607 61.3244C213.559 62.0036 214.51 63.6919 215.577 63.0321Z" fill="#F0A173"/>
<path d="M259.608 27.7721C261.607 27.7721 263.218 26.1614 263.218 24.1627C263.218 22.1639 261.607 20.5532 259.608 20.5532C257.609 20.5532 255.999 22.1639 255.999 24.1627C255.979 26.1614 257.609 27.7721 259.608 27.7721Z" fill="#110580"/>
<path d="M249.284 37.6107C250.293 37.9794 250.739 37.9794 250.739 37.9794C250.623 37.3196 250.487 36.6016 250.487 36.5434C250.487 36.5434 248.818 35.9807 247.712 34.8745C246.043 33.2056 246.878 31.5368 245.481 30.1395C244.316 28.9752 242.861 28.4707 242.376 28.3348C242.356 28.3542 242.356 28.3542 242.356 28.3542C242.376 28.3736 244.161 29.0917 245.325 30.6635C246.509 32.2354 245.442 33.7878 246.858 35.6702C247.693 36.8345 248.411 37.2808 249.284 37.6107Z" fill="#E3996D"/>
<path d="M253.165 43.6072C252.04 44.0729 250.798 44.3252 249.498 44.3252C248.838 44.3252 248.159 44.2476 247.538 44.1117L248.353 46.2075C248.586 46.1881 248.818 46.1299 249.051 46.0911C250.681 45.7224 252.117 44.9268 253.262 43.8595L253.165 43.6072Z" fill="#E3996D"/>
<path d="M251.807 45.0625C249.906 45.0625 248.334 43.5101 248.334 41.5889C248.334 39.6872 249.886 38.1153 251.807 38.1153C253.728 38.1153 255.281 39.6678 255.281 41.5889C255.281 43.5101 253.709 45.0625 251.807 45.0625ZM251.807 38.6975C250.216 38.6975 248.916 39.9977 248.916 41.5889C248.916 43.1802 250.216 44.4804 251.807 44.4804C253.399 44.4804 254.699 43.1802 254.699 41.5889C254.699 39.9977 253.399 38.6975 251.807 38.6975Z" fill="white"/>
<path d="M263.004 46.9642C263.392 46.8284 263.625 46.4015 263.47 46.0134L258.871 32.0801C257.706 27.9855 253.961 24.9776 249.498 24.9776C246.587 24.9776 243.986 26.2584 242.201 28.2572C242.221 28.2572 244.083 28.7229 245.461 30.1201C246.859 31.5173 246.024 33.1862 247.693 34.8551C248.799 35.9612 250.468 36.524 250.468 36.524C250.468 36.6986 251.283 40.8903 251.943 44.1504C252.079 44.8684 252.214 45.7029 252.331 46.3432C252.389 46.6537 252.603 46.906 252.894 47.0224C254.582 47.7016 256.523 48.0509 258.599 47.9539C260.093 47.8957 261.995 47.3135 263.004 46.9642Z" fill="#110580"/>
<path d="M261.975 75.3159C261.975 75.3159 262.635 78.0521 262.441 78.0521C262.227 78.0327 254.174 76.4609 252.078 75.9951C247.479 75.0054 246.761 71.8812 246.761 71.8812C246.761 71.8812 247.13 71.8617 247.518 71.5706C247.906 71.2796 248.042 71.1631 248.042 71.1631C248.042 71.1631 248.702 72.7738 252.699 73.9381C258.268 75.5488 261.975 75.3159 261.975 75.3159Z" fill="#FFADB2"/>
<path d="M216.023 106.501C216.023 106.501 217.867 106.481 218.798 106.326C219.73 106.151 221.534 105.278 221.534 105.278C221.534 105.278 222.602 107.607 222.893 108.228C223.203 108.849 224.504 110.382 224.678 111.391C224.853 112.4 224.892 114.651 221.011 115C219.206 115.156 217.518 118.804 215.558 119.076C214.587 119.211 209.969 119.716 208.669 118.998C207.368 118.28 207.776 116.359 210.939 115.33C214.102 114.282 213.501 113.235 214.257 111.896C214.975 110.518 216.023 106.501 216.023 106.501Z" fill="#AB534D"/>
<path d="M205.272 102.911C205 105.181 204.729 107.432 204.457 109.703C204.282 111.216 205.893 112.536 207.29 112.536C208.959 112.536 209.929 111.236 210.123 109.703C210.395 107.432 210.667 105.181 210.939 102.911C211.113 101.397 209.503 100.078 208.105 100.078C206.417 100.097 205.447 101.397 205.272 102.911Z" fill="#FCB58A"/>
<path d="M249.75 94.2946C253.825 94.7021 257.59 93.5572 260.462 90.7822C263.315 88.0072 263.14 83.3498 262.985 81.4675C262.868 79.9732 262.364 77.5669 262.17 76.6161C262.111 76.3832 261.937 76.1892 261.704 76.1503C260.249 75.8787 255.145 74.9666 253.631 74.5009C252.389 74.1128 251.303 73.6858 250.759 73.4724C250.546 73.3947 250.313 73.4335 250.138 73.5888C249.672 74.0157 248.566 74.7725 246.762 74.5979C244.316 74.3456 233.546 71.0272 229.297 69.7077C225.047 68.4075 217.925 65.2444 211.327 67.4178C207.116 68.815 203.972 72.832 203.875 81.2734C203.817 87.8325 203.798 96.2158 203.914 99.3789C203.992 101.863 203.895 104.502 203.856 105.511C203.836 105.783 203.992 105.996 204.224 106.093C204.651 106.268 205.428 106.52 206.514 106.753C207.873 107.044 209.561 106.928 210.318 106.85C210.551 106.831 210.745 106.675 210.822 106.443C211.23 105.239 212.549 101.261 213.753 97.9235C216.741 89.5596 216.993 85.0575 216.857 83.0394C216.819 82.5348 217.381 82.2243 217.789 82.5154C219.768 83.8738 224.018 86.6682 228.773 88.8028C235.293 91.7525 244.666 93.7901 249.75 94.2946Z" fill="#FFADB2"/>
<path d="M255.474 75.2771C255.494 78.2074 254.582 81.2152 252.447 83.311C251.496 84.2619 250.312 84.9993 249.012 85.4068C247.46 85.8726 245.81 85.795 244.219 85.5427C238.281 84.5918 232.828 81.8556 227.472 79.2941C224.775 77.9939 222.058 76.7325 219.225 75.7234C218.507 75.4712 217.808 75.2189 217.09 75.0054C216.294 74.7726 215.479 74.5397 214.664 74.6367C213.325 74.7726 212.297 75.704 211.598 76.7713C210.861 77.9357 210.492 79.3135 210.201 80.6525C209.871 82.1273 209.658 83.6215 209.522 85.1352C209.308 87.3086 209.25 89.482 209.056 91.6555C208.648 95.9635 208.163 100.31 207.406 104.58C207.348 104.929 207.29 105.259 207.212 105.589C207.115 106.054 207.833 106.268 207.93 105.783C208.299 103.997 208.551 102.193 208.784 100.388C209.114 98.0593 209.386 95.6918 209.638 93.3438C209.852 91.3644 209.987 89.4044 210.104 87.425C210.259 84.4948 210.57 81.4675 211.54 78.6537C211.947 77.4505 212.646 76.228 213.81 75.6264C215.208 74.9084 216.876 75.6458 218.235 76.1309C221.087 77.1012 223.843 78.3626 226.56 79.6628C231.955 82.2243 237.349 85.0187 243.288 86.1248C244.898 86.4159 246.548 86.6294 248.178 86.3577C249.517 86.1443 250.817 85.5621 251.884 84.7665C254.232 83.0394 255.649 80.3614 256.095 77.4893C256.212 76.7519 256.27 75.9951 256.25 75.2577C256.231 74.792 255.474 74.792 255.474 75.2771Z" fill="white"/>
<path d="M215.247 64.5458C216.509 63.3426 218.139 62.8963 219.808 62.5858C220.991 62.3529 220.565 60.5094 219.381 60.7423C217.401 61.1304 215.461 61.7319 213.967 63.168C213.113 64.0024 214.374 65.3996 215.247 64.5458Z" fill="#FCB58A"/>
<path d="M222.078 65.1086L218.022 66.1177C217.42 66.2729 216.819 65.9042 216.663 65.3026L216.023 62.7217C215.868 62.1201 216.237 61.5185 216.838 61.3633L220.894 60.3542C221.495 60.199 222.097 60.5677 222.252 61.1692L222.893 63.7502C223.048 64.3518 222.679 64.9727 222.078 65.1086Z" fill="#FCB58A"/>
<path d="M255.844 99.6894H228.501V93.9648H255.844C256.62 93.9648 257.241 94.5858 257.241 95.362V98.2534C257.241 99.049 256.62 99.6894 255.844 99.6894Z" fill="#F8E7D8"/>
<path d="M272.881 93.5184H227.336C227.22 93.5184 227.123 93.6154 227.123 93.7318C227.123 93.8483 227.22 93.9453 227.336 93.9453H254.349C255.94 93.9453 257.221 95.2261 257.221 96.8173C257.221 98.4086 255.94 99.6893 254.349 99.6893H227.336C227.22 99.6893 227.123 99.7864 227.123 99.9028C227.123 100.019 227.22 100.116 227.336 100.116H272.881C274.473 100.116 275.753 98.8355 275.753 97.2442V96.4098C275.734 94.7991 274.453 93.5184 272.881 93.5184Z" fill="#12999E"/>
<path d="M195.084 123.073C195.764 124.451 199.198 125.072 202.73 122.53C208.067 118.707 211.269 119.871 211.269 116.669C211.269 115.233 210.978 113.914 210.609 112.4C210.26 111.022 210.279 108.422 210.279 108.422C210.279 108.422 207.737 108.694 206.437 108.461C205.428 108.286 204.71 107.898 204.71 107.898C204.71 107.898 204.341 109.955 203.157 112.128C202.323 113.662 201.702 114.593 200.285 115.893C199.392 116.689 193.939 120.803 195.084 123.073Z" fill="#C7645D"/>
<path d="M249.284 98.4087H228.501V98.137H249.284C249.362 98.137 249.42 98.1952 249.42 98.2728C249.42 98.3505 249.381 98.4087 249.284 98.4087Z" fill="#DEBCA7"/>
<path d="M251.555 95.6142H228.501V95.3425H251.555C251.633 95.3425 251.691 95.4008 251.691 95.4784C251.691 95.5366 251.633 95.6142 251.555 95.6142Z" fill="#DEBCA7"/>
<path d="M254.097 96.9532H228.501V96.6816H254.097C254.175 96.6816 254.233 96.7398 254.233 96.8174C254.233 96.895 254.155 96.9532 254.097 96.9532Z" fill="#DEBCA7"/>
<path d="M243.444 129.496H236.982C236.982 129.496 235.934 129.846 235.041 131.495C233.935 133.552 234.323 135.551 233.624 137.084C232.809 138.85 231.529 139.529 231.529 139.529C231.529 139.529 232.965 139.723 233.818 139.607C234.595 139.49 235.565 138.85 235.565 138.85C235.565 138.85 235.74 139.219 235.778 139.878C235.837 140.596 235.759 140.985 235.759 140.985C235.759 140.985 238.126 140.422 239.077 139.063C240.416 137.162 239.291 134.852 241.018 131.98C241.814 130.7 243.444 129.496 243.444 129.496Z" fill="#BFA990"/>
<path d="M277.171 13.5866C279.072 15.5466 280.14 17.7006 281.323 20.1263C281.653 20.7861 283.691 19.4665 283.536 18.8067C282.915 16.2258 281.207 13.9553 279.325 12.1312C278.684 11.549 276.666 13.0626 277.171 13.5866Z" fill="#F3E9E1"/>
<path d="M288.698 13.3537C288.64 15.7406 288.135 17.9916 287.689 20.3203C287.476 21.3488 289.455 20.1457 289.668 19.6023C290.542 17.3124 290.794 14.7121 290.774 12.267C290.736 11.549 288.717 12.6357 288.698 13.3537Z" fill="#F3E9E1"/>
<path d="M293.432 23.2507C294.907 22.5327 296.401 21.8147 297.915 21.1549C298.458 20.922 299.176 20.2816 299.021 19.6024C298.866 18.9426 298.012 18.9815 297.527 19.1949C296.033 19.8741 294.538 20.5727 293.044 21.2907C292.52 21.5624 291.783 22.1446 291.938 22.8432C292.093 23.503 292.947 23.4835 293.432 23.2507Z" fill="#F3E9E1"/>
<path d="M283.458 36.9315C283.71 36.3882 282.76 35.3791 281.324 34.6999C279.887 34.0207 278.51 33.9043 278.257 34.467C278.005 35.0104 278.956 36.0195 280.392 36.6987C281.828 37.3779 283.206 37.4749 283.458 36.9315Z" fill="#D4BFA9"/>
<path d="M278.743 33.5356C279.228 32.5847 279.655 31.5756 279.81 30.5083C280.179 28.2185 279.5 25.5793 280.877 23.7358C281.887 22.3968 283.73 21.931 285.38 22.1251C287.398 22.3386 289.377 23.4835 290.367 25.2494C291.356 27.0347 291.182 29.4604 289.785 30.9353C288.601 32.1772 286.796 32.6041 285.535 33.7685C284.836 34.4283 284.37 35.2627 283.847 36.0972L283.672 36.3494C279.771 36.0583 278.743 33.5356 278.743 33.5356Z" fill="#EBDBCD"/>
<path d="M285.534 29.7903C285.359 29.1887 284.835 29.2469 284.37 29.4604C284.253 29.1305 284.059 28.7036 283.71 28.5871C283.322 28.4513 282.895 28.723 282.604 28.9559C281.963 29.4798 281.478 30.2561 281.207 31.0323C280.935 31.8085 280.799 32.6429 280.547 33.4192C280.45 33.7296 280.954 33.8655 281.051 33.5356C281.362 32.5265 281.478 31.4398 281.983 30.5083C282.274 29.9844 282.701 29.4022 283.244 29.1305C283.419 29.0529 283.555 29.0141 283.671 29.2081C283.768 29.344 283.846 29.4992 283.885 29.6545C283.885 29.6739 283.904 29.6739 283.904 29.6933C283.826 29.7321 283.788 29.7709 283.729 29.8097C283.205 30.2366 282.526 30.974 282.546 31.6921C282.565 32.0219 282.778 32.2936 283.108 32.313C283.477 32.3325 283.846 32.022 284.059 31.7503C284.486 31.2263 284.603 30.5471 284.486 29.9067C284.603 29.8291 284.719 29.7903 284.835 29.7903C285.146 29.7709 285.03 30.2949 284.991 30.4695C284.835 31.0711 284.525 31.595 284.214 32.119C283.982 32.5071 283.768 32.934 283.477 33.2833C283.167 33.6714 282.72 33.9431 282.313 34.2342C282.041 34.4089 282.313 34.8552 282.584 34.6805C283.07 34.3506 283.555 34.0207 283.923 33.555C284.292 33.0505 284.622 32.4877 284.932 31.9637C285.262 31.3622 285.748 30.4889 285.534 29.7903ZM284.001 30.7218C283.943 30.9934 283.826 31.2651 283.632 31.4786C283.516 31.595 283.031 32.0414 283.07 31.6532C283.089 31.4204 283.264 31.1681 283.38 30.9741C283.555 30.7218 283.768 30.4889 284.001 30.2949C284.02 30.4307 284.02 30.5859 284.001 30.7218Z" fill="#BFA990"/>
<path d="M280.392 36.6793C279.092 36.0583 278.199 35.2044 278.219 34.6417L277.656 36.9315C277.442 37.3779 278.219 38.1929 279.383 38.7363C280.547 39.2796 281.653 39.3766 281.867 38.9303C281.886 38.9109 281.886 38.8915 281.886 38.8527L283.361 37.048C282.915 37.4361 281.692 37.3003 280.392 36.6793Z" fill="#BFA990"/>
<path d="M207.504 66.3699C207.038 66.4863 206.572 66.2341 206.436 65.7683L200.362 44.034C200.246 43.5683 200.498 43.1025 200.964 42.9667C201.43 42.8503 201.895 43.1025 202.031 43.5683L208.105 65.3026C208.241 65.7683 207.969 66.2535 207.504 66.3699Z" fill="#C5C6E3"/>
<path d="M206.398 65.4967C206.417 65.031 206.824 64.6428 207.31 64.6816L229.84 66.0012C230.305 66.0206 230.693 66.4282 230.655 66.9133C230.635 67.379 230.228 67.7672 229.743 67.7283L207.213 66.4087C206.747 66.3893 206.378 65.9818 206.398 65.4967Z" fill="#C5C6E3"/>
<path d="M294.829 80.1868L293.839 79.9151C293.781 79.8957 293.742 79.8375 293.762 79.7793C293.781 79.721 293.839 79.6822 293.898 79.7016L294.654 79.9151L294.868 79.1583C294.887 79.1001 294.946 79.0612 295.004 79.0807C295.062 79.1001 295.101 79.1583 295.081 79.2165L294.829 80.1868Z" fill="#EBDBCD"/>
<path d="M292.093 79.4299C292.073 79.4299 292.073 79.4299 292.073 79.4299L290.288 78.9448C290.23 78.9254 290.191 78.8671 290.21 78.8089C290.23 78.7507 290.288 78.7119 290.346 78.7313L292.132 79.2164C292.19 79.2358 292.229 79.2941 292.209 79.3523C292.19 79.4105 292.151 79.4299 292.093 79.4299ZM288.522 78.479C288.503 78.479 288.503 78.479 288.503 78.479L286.717 77.9939C286.659 77.9745 286.62 77.9163 286.64 77.858C286.659 77.7998 286.717 77.761 286.776 77.7804L288.561 78.2656C288.619 78.285 288.658 78.3432 288.639 78.4014C288.619 78.4402 288.58 78.479 288.522 78.479ZM284.99 77.5088C284.971 77.5088 284.971 77.5088 284.971 77.5088L283.186 77.0236C283.127 77.0042 283.089 76.946 283.108 76.8878C283.127 76.8295 283.186 76.7907 283.244 76.8101L285.029 77.2953C285.087 77.3147 285.126 77.3729 285.107 77.4311C285.068 77.4894 285.029 77.5088 284.99 77.5088Z" fill="#EBDBCD"/>
<path d="M281.42 76.5579C281.4 76.5579 281.4 76.5579 281.4 76.5579L280.411 76.2862L280.682 75.2965C280.702 75.2383 280.76 75.1995 280.818 75.2189C280.877 75.2383 280.915 75.2965 280.896 75.3547L280.682 76.1116L281.439 76.325C281.497 76.3444 281.536 76.4027 281.517 76.4609C281.498 76.5191 281.459 76.5579 281.42 76.5579Z" fill="#EBDBCD"/>
<path d="M281.245 73.6665C281.226 73.6665 281.226 73.6665 281.226 73.6665C281.167 73.6471 281.129 73.5888 281.148 73.5306L281.614 71.7453C281.633 71.6871 281.691 71.6483 281.75 71.6677C281.808 71.6871 281.847 71.7453 281.827 71.8035L281.362 73.5888C281.342 73.6276 281.303 73.6665 281.245 73.6665ZM282.215 70.1152C282.196 70.1152 282.196 70.1152 282.196 70.1152C282.138 70.0958 282.099 70.0376 282.118 69.9794L282.584 68.1941C282.603 68.1359 282.662 68.097 282.72 68.1165C282.778 68.1359 282.817 68.1941 282.798 68.2523L282.332 70.0376C282.312 70.0764 282.274 70.1152 282.215 70.1152Z" fill="#EBDBCD"/>
<path d="M283.166 66.5447C283.147 66.5447 283.147 66.5447 283.147 66.5447C283.089 66.5253 283.05 66.467 283.069 66.4088L283.341 65.4191L284.331 65.6908C284.389 65.7102 284.428 65.7684 284.408 65.8266C284.389 65.8849 284.331 65.9237 284.273 65.9043L283.516 65.6908L283.302 66.4476C283.263 66.5253 283.225 66.5447 283.166 66.5447Z" fill="#EBDBCD"/>
<path d="M294.965 68.7956C294.945 68.7956 294.945 68.7956 294.945 68.7956L293.16 68.3105C293.102 68.2911 293.063 68.2328 293.083 68.1746C293.102 68.1164 293.16 68.0776 293.218 68.097L295.004 68.5822C295.062 68.6016 295.101 68.6598 295.081 68.718C295.062 68.7568 295.023 68.7956 294.965 68.7956ZM291.414 67.8253C291.394 67.8253 291.394 67.8253 291.394 67.8253L289.609 67.3402C289.551 67.3208 289.512 67.2626 289.531 67.2043C289.551 67.1461 289.609 67.1073 289.667 67.1267L291.452 67.6119C291.511 67.6313 291.549 67.6895 291.53 67.7477C291.511 67.8059 291.452 67.8253 291.414 67.8253ZM287.843 66.8745C287.824 66.8745 287.824 66.8745 287.824 66.8745L286.038 66.3893C285.98 66.3699 285.941 66.3117 285.961 66.2535C285.98 66.1953 286.038 66.1565 286.096 66.1759L287.882 66.661C287.94 66.6804 287.979 66.7386 287.959 66.7968C287.94 66.8356 287.901 66.8745 287.843 66.8745Z" fill="#EBDBCD"/>
<path d="M297.391 70.3869C297.371 70.3869 297.371 70.3869 297.371 70.3869C297.313 70.3675 297.274 70.3093 297.294 70.2511L297.507 69.4943L296.75 69.2808C296.692 69.2614 296.653 69.2032 296.673 69.1449C296.692 69.0867 296.75 69.0479 296.809 69.0673L297.798 69.339L297.527 70.3287C297.488 70.3675 297.43 70.3869 297.391 70.3869Z" fill="#EBDBCD"/>
<path d="M295.47 77.5088C295.45 77.5088 295.45 77.5088 295.45 77.5088C295.392 77.4894 295.353 77.4311 295.373 77.3729L295.838 75.5876C295.858 75.5294 295.916 75.4906 295.974 75.51C296.032 75.5294 296.071 75.5876 296.052 75.6458L295.586 77.4312C295.567 77.47 295.508 77.5088 295.47 77.5088ZM296.44 73.9575C296.421 73.9575 296.421 73.9575 296.421 73.9575C296.362 73.9381 296.323 73.8799 296.343 73.8217L296.809 72.0364C296.828 71.9782 296.886 71.9393 296.944 71.9588C297.003 71.9782 297.041 72.0364 297.022 72.0946L296.556 73.8799C296.537 73.9187 296.479 73.9575 296.44 73.9575Z" fill="#EBDBCD"/>
<path d="M256.502 70.9302C253.708 70.678 251.515 70.1346 250.157 69.7271C252.117 70.8914 254.465 71.7065 257.046 71.9782C258.618 72.1528 260.17 72.114 261.606 71.9005C261.587 71.5318 261.587 71.2019 261.587 70.9108C260.248 71.0661 258.482 71.1243 256.502 70.9302Z" fill="#F0A173"/>
<path d="M192.115 38.5034C192.077 38.5034 192.038 38.484 192.018 38.4646C191.844 38.2123 191.708 37.9406 191.572 37.6496C191.553 37.5913 191.572 37.5331 191.63 37.4943C191.688 37.4749 191.747 37.4943 191.785 37.5525C191.902 37.8242 192.038 38.0959 192.212 38.3288C192.251 38.387 192.232 38.4452 192.193 38.484C192.174 38.5034 192.135 38.5034 192.115 38.5034Z" fill="#EBDBCD"/>
<path d="M191.32 35.8837C191.262 35.8837 191.203 35.8254 191.203 35.7672V35.709C191.203 35.088 191.3 34.4865 191.475 33.8655C191.494 33.8073 191.553 33.7685 191.611 33.7879C191.669 33.8073 191.708 33.8655 191.689 33.9237C191.514 34.5059 191.417 35.1075 191.417 35.6896V35.7284C191.436 35.8254 191.378 35.8837 191.32 35.8837ZM192.407 32.3324C192.387 32.3324 192.368 32.3324 192.348 32.313C192.29 32.2936 192.271 32.216 192.329 32.1578C192.659 31.6532 193.047 31.1487 193.532 30.683C193.571 30.6441 193.648 30.6441 193.687 30.683C193.726 30.7218 193.726 30.7994 193.687 30.8382C193.222 31.3039 192.833 31.7891 192.523 32.2742C192.484 32.313 192.465 32.3324 192.407 32.3324ZM195.026 29.6544C195.007 29.6544 194.949 29.635 194.949 29.6156C194.91 29.5574 194.929 29.4992 194.968 29.4604C195.279 29.2275 195.608 28.9947 195.977 28.7424C196.152 28.626 196.346 28.4901 196.54 28.3737C196.598 28.3543 196.656 28.3543 196.695 28.3931C196.715 28.4513 196.715 28.5095 196.676 28.5483C196.501 28.6648 196.307 28.7812 196.113 28.917C195.744 29.1499 195.434 29.3828 195.123 29.635C195.065 29.635 195.046 29.6544 195.026 29.6544ZM198.151 27.5587C198.112 27.5587 198.073 27.5392 198.054 27.5004C198.034 27.4422 198.034 27.384 198.073 27.3452C198.694 26.9377 199.179 26.6078 199.587 26.2585C199.625 26.2196 199.703 26.2391 199.742 26.2779C199.781 26.3167 199.761 26.3943 199.722 26.4331C199.296 26.7824 198.81 27.1123 198.17 27.5393C198.189 27.5587 198.17 27.5587 198.151 27.5587ZM204.651 26.4331C204.593 26.4331 204.535 26.3749 204.535 26.3167C204.535 26.2585 204.574 26.2003 204.651 26.2003C205.272 26.1809 205.874 26.1226 206.495 25.9674C206.553 25.948 206.611 25.9868 206.631 26.045C206.65 26.1032 206.611 26.1615 206.553 26.1809C205.913 26.3361 205.272 26.4137 204.651 26.4331ZM202.789 26.2585C202.769 26.2585 202.769 26.2585 202.769 26.2585C202.148 26.142 201.527 25.948 200.964 25.6957C200.906 25.6763 200.887 25.5987 200.906 25.5405C200.926 25.4822 201.003 25.4628 201.061 25.4822C201.624 25.7345 202.226 25.9092 202.827 26.045C202.886 26.0644 202.924 26.1226 202.905 26.1809C202.886 26.2197 202.847 26.2585 202.789 26.2585ZM208.3 25.6181C208.261 25.6181 208.222 25.5987 208.203 25.5405C208.183 25.4822 208.203 25.424 208.261 25.3852C208.804 25.1523 209.348 24.8613 209.91 24.5314C209.969 24.512 210.027 24.512 210.066 24.5702C210.085 24.6284 210.085 24.6866 210.027 24.7254C209.445 25.0747 208.901 25.3464 208.339 25.5793C208.319 25.5987 208.3 25.6181 208.3 25.6181ZM201.023 25.1717C201.003 25.1717 200.964 25.1523 200.945 25.1523C200.906 25.1135 200.887 25.0359 200.926 24.9971C201.353 24.512 201.663 23.988 201.915 23.4446C201.935 23.3864 202.012 23.367 202.071 23.3864C202.129 23.4058 202.148 23.4835 202.129 23.5417C201.876 24.1044 201.527 24.6478 201.12 25.1523C201.081 25.1718 201.061 25.1717 201.023 25.1717ZM199.393 24.7254C199.373 24.7254 199.334 24.706 199.315 24.706C198.791 24.2791 198.364 23.8134 198.034 23.2894C198.015 23.2312 198.015 23.173 198.073 23.1342C198.131 23.1148 198.189 23.1148 198.228 23.173C198.539 23.6775 198.946 24.1239 199.451 24.5314C199.49 24.5702 199.509 24.6478 199.47 24.6866C199.451 24.7254 199.412 24.7254 199.393 24.7254ZM211.521 23.6969C211.482 23.6969 211.443 23.6775 211.424 23.6581C211.385 23.5999 211.405 23.5417 211.443 23.5029C211.909 23.173 212.356 22.8431 212.763 22.4938L212.938 22.3579C212.996 22.3191 213.054 22.3385 213.093 22.3773C213.112 22.4161 213.112 22.4938 213.074 22.5326L212.899 22.6684C212.472 22.9983 212.045 23.3282 211.579 23.6775C211.56 23.6969 211.541 23.6969 211.521 23.6969ZM202.497 21.7758C202.42 21.7758 202.381 21.7175 202.381 21.6593C202.381 21.5817 202.381 21.5235 202.381 21.4459C202.381 21.1936 202.362 20.9413 202.303 20.6891C202.245 20.4174 202.168 20.1457 202.032 19.874C202.012 19.8158 202.032 19.7576 202.09 19.7188C202.148 19.6994 202.206 19.7188 202.245 19.777C202.381 20.0487 202.478 20.3397 202.536 20.6308C202.595 20.8831 202.614 21.1548 202.614 21.4265C202.614 21.5041 202.614 21.5817 202.614 21.6593C202.594 21.737 202.536 21.7758 202.497 21.7758ZM197.491 21.5817C197.433 21.5817 197.374 21.5429 197.374 21.4847C197.355 21.3682 197.355 21.213 197.355 21.0966C197.355 20.5726 197.471 20.0487 197.665 19.6023C197.685 19.5441 197.763 19.5247 197.821 19.5441C197.879 19.5635 197.898 19.6412 197.879 19.6994C197.685 20.1263 197.588 20.6114 197.588 21.116C197.588 21.2324 197.588 21.3682 197.607 21.4847C197.627 21.5235 197.568 21.5817 197.491 21.5817C197.51 21.5817 197.51 21.5817 197.491 21.5817ZM200.867 18.5932C200.848 18.5932 200.829 18.5932 200.809 18.5738C200.343 18.3022 199.858 18.2245 199.393 18.341C199.296 18.3604 199.199 18.3992 199.101 18.4186C199.043 18.438 198.985 18.4186 198.966 18.341C198.946 18.2828 198.966 18.2245 199.043 18.2051C199.14 18.1663 199.257 18.1275 199.354 18.1081C199.878 17.9917 200.421 18.0887 200.945 18.3798C201.003 18.3992 201.023 18.4768 200.984 18.535C200.945 18.5738 200.906 18.5932 200.867 18.5932Z" fill="#EBDBCD"/>
<path d="M214.548 21.4653C214.509 21.4653 214.47 21.4458 214.451 21.407C214.431 21.3488 214.431 21.2906 214.49 21.2518C214.819 21.0577 215.091 20.9219 215.343 20.8443C215.402 20.8249 215.46 20.8637 215.479 20.9219C215.499 20.9801 215.46 21.0383 215.402 21.0577C215.188 21.1354 214.916 21.2324 214.606 21.4265C214.606 21.4653 214.587 21.4653 214.548 21.4653Z" fill="#EBDBCD"/>
</svg>
