<svg width="320" height="153" viewBox="0 0 320 153" fill="none" xmlns="http://www.w3.org/2000/svg">
<rect width="320" height="153" rx="20" fill="#4CB2B6"/>
<path d="M37 39.04V41.3H31.18V44.88H35.64V47.1H31.18V53H28.38V39.04H37ZM40.4055 40.6C39.9121 40.6 39.4988 40.4467 39.1655 40.14C38.8455 39.82 38.6855 39.4267 38.6855 38.96C38.6855 38.4933 38.8455 38.1067 39.1655 37.8C39.4988 37.48 39.9121 37.32 40.4055 37.32C40.8988 37.32 41.3055 37.48 41.6255 37.8C41.9588 38.1067 42.1255 38.4933 42.1255 38.96C42.1255 39.4267 41.9588 39.82 41.6255 40.14C41.3055 40.4467 40.8988 40.6 40.4055 40.6ZM41.7855 41.92V53H38.9855V41.92H41.7855ZM50.6919 41.76C52.0119 41.76 53.0785 42.18 53.8919 43.02C54.7052 43.8467 55.1119 45.0067 55.1119 46.5V53H52.3119V46.88C52.3119 46 52.0919 45.3267 51.6519 44.86C51.2119 44.38 50.6119 44.14 49.8519 44.14C49.0785 44.14 48.4652 44.38 48.0119 44.86C47.5719 45.3267 47.3519 46 47.3519 46.88V53H44.5519V41.92H47.3519V43.3C47.7252 42.82 48.1985 42.4467 48.7719 42.18C49.3585 41.9 49.9985 41.76 50.6919 41.76ZM57.0545 47.42C57.0545 46.3 57.2745 45.3067 57.7145 44.44C58.1679 43.5733 58.7812 42.9067 59.5545 42.44C60.3279 41.9733 61.1879 41.74 62.1345 41.74C62.8545 41.74 63.5412 41.9 64.1945 42.22C64.8479 42.5267 65.3679 42.94 65.7545 43.46V38.2H68.5945V53H65.7545V51.36C65.4079 51.9067 64.9212 52.3467 64.2945 52.68C63.6679 53.0133 62.9412 53.18 62.1145 53.18C61.1812 53.18 60.3279 52.94 59.5545 52.46C58.7812 51.98 58.1679 51.3067 57.7145 50.44C57.2745 49.56 57.0545 48.5533 57.0545 47.42ZM65.7745 47.46C65.7745 46.78 65.6412 46.2 65.3745 45.72C65.1079 45.2267 64.7479 44.8533 64.2945 44.6C63.8412 44.3333 63.3545 44.2 62.8345 44.2C62.3145 44.2 61.8345 44.3267 61.3945 44.58C60.9545 44.8333 60.5945 45.2067 60.3145 45.7C60.0479 46.18 59.9145 46.7533 59.9145 47.42C59.9145 48.0867 60.0479 48.6733 60.3145 49.18C60.5945 49.6733 60.9545 50.0533 61.3945 50.32C61.8479 50.5867 62.3279 50.72 62.8345 50.72C63.3545 50.72 63.8412 50.5933 64.2945 50.34C64.7479 50.0733 65.1079 49.7 65.3745 49.22C65.6412 48.7267 65.7745 48.14 65.7745 47.46ZM75.3748 47.42C75.3748 46.3 75.5948 45.3067 76.0348 44.44C76.4882 43.5733 77.0948 42.9067 77.8548 42.44C78.6282 41.9733 79.4882 41.74 80.4348 41.74C81.2615 41.74 81.9815 41.9067 82.5948 42.24C83.2215 42.5733 83.7215 42.9933 84.0948 43.5V41.92H86.9148V53H84.0948V51.38C83.7348 51.9 83.2348 52.3333 82.5948 52.68C81.9682 53.0133 81.2415 53.18 80.4148 53.18C79.4815 53.18 78.6282 52.94 77.8548 52.46C77.0948 51.98 76.4882 51.3067 76.0348 50.44C75.5948 49.56 75.3748 48.5533 75.3748 47.42ZM84.0948 47.46C84.0948 46.78 83.9615 46.2 83.6948 45.72C83.4282 45.2267 83.0682 44.8533 82.6148 44.6C82.1615 44.3333 81.6748 44.2 81.1548 44.2C80.6348 44.2 80.1548 44.3267 79.7148 44.58C79.2748 44.8333 78.9148 45.2067 78.6348 45.7C78.3682 46.18 78.2348 46.7533 78.2348 47.42C78.2348 48.0867 78.3682 48.6733 78.6348 49.18C78.9148 49.6733 79.2748 50.0533 79.7148 50.32C80.1682 50.5867 80.6482 50.72 81.1548 50.72C81.6748 50.72 82.1615 50.5933 82.6148 50.34C83.0682 50.0733 83.4282 49.7 83.6948 49.22C83.9615 48.7267 84.0948 48.14 84.0948 47.46ZM97.2152 43.54C97.5752 43.0067 98.0685 42.5733 98.6952 42.24C99.3352 41.9067 100.062 41.74 100.875 41.74C101.822 41.74 102.675 41.9733 103.435 42.44C104.208 42.9067 104.815 43.5733 105.255 44.44C105.708 45.2933 105.935 46.2867 105.935 47.42C105.935 48.5533 105.708 49.56 105.255 50.44C104.815 51.3067 104.208 51.98 103.435 52.46C102.675 52.94 101.822 53.18 100.875 53.18C100.048 53.18 99.3218 53.02 98.6952 52.7C98.0818 52.3667 97.5885 51.94 97.2152 51.42V53H94.4152V38.2H97.2152V43.54ZM103.075 47.42C103.075 46.7533 102.935 46.18 102.655 45.7C102.388 45.2067 102.028 44.8333 101.575 44.58C101.135 44.3267 100.655 44.2 100.135 44.2C99.6285 44.2 99.1485 44.3333 98.6952 44.6C98.2552 44.8533 97.8952 45.2267 97.6152 45.72C97.3485 46.2133 97.2152 46.7933 97.2152 47.46C97.2152 48.1267 97.3485 48.7067 97.6152 49.2C97.8952 49.6933 98.2552 50.0733 98.6952 50.34C99.1485 50.5933 99.6285 50.72 100.135 50.72C100.655 50.72 101.135 50.5867 101.575 50.32C102.028 50.0533 102.388 49.6733 102.655 49.18C102.935 48.6867 103.075 48.1 103.075 47.42ZM118.27 47.22C118.27 47.62 118.243 47.98 118.19 48.3H110.09C110.157 49.1 110.437 49.7267 110.93 50.18C111.423 50.6333 112.03 50.86 112.75 50.86C113.79 50.86 114.53 50.4133 114.97 49.52H117.99C117.67 50.5867 117.057 51.4667 116.15 52.16C115.243 52.84 114.13 53.18 112.81 53.18C111.743 53.18 110.783 52.9467 109.93 52.48C109.09 52 108.43 51.3267 107.95 50.46C107.483 49.5933 107.25 48.5933 107.25 47.46C107.25 46.3133 107.483 45.3067 107.95 44.44C108.417 43.5733 109.07 42.9067 109.91 42.44C110.75 41.9733 111.717 41.74 112.81 41.74C113.863 41.74 114.803 41.9667 115.63 42.42C116.47 42.8733 117.117 43.52 117.57 44.36C118.037 45.1867 118.27 46.14 118.27 47.22ZM115.37 46.42C115.357 45.7 115.097 45.1267 114.59 44.7C114.083 44.26 113.463 44.04 112.73 44.04C112.037 44.04 111.45 44.2533 110.97 44.68C110.503 45.0933 110.217 45.6733 110.11 46.42H115.37ZM124.554 53.18C123.647 53.18 122.834 53.02 122.114 52.7C121.394 52.3667 120.82 51.92 120.394 51.36C119.98 50.8 119.754 50.18 119.714 49.5H122.534C122.587 49.9267 122.794 50.28 123.154 50.56C123.527 50.84 123.987 50.98 124.534 50.98C125.067 50.98 125.48 50.8733 125.774 50.66C126.08 50.4467 126.234 50.1733 126.234 49.84C126.234 49.48 126.047 49.2133 125.674 49.04C125.314 48.8533 124.734 48.6533 123.934 48.44C123.107 48.24 122.427 48.0333 121.894 47.82C121.374 47.6067 120.92 47.28 120.534 46.84C120.16 46.4 119.974 45.8067 119.974 45.06C119.974 44.4467 120.147 43.8867 120.494 43.38C120.854 42.8733 121.36 42.4733 122.014 42.18C122.68 41.8867 123.46 41.74 124.354 41.74C125.674 41.74 126.727 42.0733 127.514 42.74C128.3 43.3933 128.734 44.28 128.814 45.4H126.134C126.094 44.96 125.907 44.6133 125.574 44.36C125.254 44.0933 124.82 43.96 124.274 43.96C123.767 43.96 123.374 44.0533 123.094 44.24C122.827 44.4267 122.694 44.6867 122.694 45.02C122.694 45.3933 122.88 45.68 123.254 45.88C123.627 46.0667 124.207 46.26 124.994 46.46C125.794 46.66 126.454 46.8667 126.974 47.08C127.494 47.2933 127.94 47.6267 128.314 48.08C128.7 48.52 128.9 49.1067 128.914 49.84C128.914 50.48 128.734 51.0533 128.374 51.56C128.027 52.0667 127.52 52.4667 126.854 52.76C126.2 53.04 125.434 53.18 124.554 53.18ZM134.472 44.22V49.58C134.472 49.9533 134.559 50.2267 134.732 50.4C134.919 50.56 135.225 50.64 135.652 50.64H136.952V53H135.192C132.832 53 131.652 51.8533 131.652 49.56V44.22H130.332V41.92H131.652V39.18H134.472V41.92H136.952V44.22H134.472ZM37.88 69.04V71.3H34.16V83H31.36V71.3H27.64V69.04H37.88ZM50.223 77.22C50.223 77.62 50.1963 77.98 50.143 78.3H42.043C42.1096 79.1 42.3896 79.7267 42.883 80.18C43.3763 80.6333 43.983 80.86 44.703 80.86C45.743 80.86 46.483 80.4133 46.923 79.52H49.943C49.623 80.5867 49.0096 81.4667 48.103 82.16C47.1963 82.84 46.083 83.18 44.763 83.18C43.6963 83.18 42.7363 82.9467 41.883 82.48C41.043 82 40.383 81.3267 39.903 80.46C39.4363 79.5933 39.203 78.5933 39.203 77.46C39.203 76.3133 39.4363 75.3067 39.903 74.44C40.3696 73.5733 41.023 72.9067 41.863 72.44C42.703 71.9733 43.6696 71.74 44.763 71.74C45.8163 71.74 46.7563 71.9667 47.583 72.42C48.423 72.8733 49.0696 73.52 49.523 74.36C49.9896 75.1867 50.223 76.14 50.223 77.22ZM47.323 76.42C47.3096 75.7 47.0496 75.1267 46.543 74.7C46.0363 74.26 45.4163 74.04 44.683 74.04C43.9896 74.04 43.403 74.2533 42.923 74.68C42.4563 75.0933 42.1696 75.6733 42.063 76.42H47.323ZM51.5467 77.42C51.5467 76.3 51.7667 75.3067 52.2067 74.44C52.6601 73.5733 53.2667 72.9067 54.0267 72.44C54.8001 71.9733 55.6601 71.74 56.6067 71.74C57.4334 71.74 58.1534 71.9067 58.7667 72.24C59.3934 72.5733 59.8934 72.9933 60.2667 73.5V71.92H63.0867V83H60.2667V81.38C59.9067 81.9 59.4067 82.3333 58.7667 82.68C58.1401 83.0133 57.4134 83.18 56.5867 83.18C55.6534 83.18 54.8001 82.94 54.0267 82.46C53.2667 81.98 52.6601 81.3067 52.2067 80.44C51.7667 79.56 51.5467 78.5533 51.5467 77.42ZM60.2667 77.46C60.2667 76.78 60.1334 76.2 59.8667 75.72C59.6001 75.2267 59.2401 74.8533 58.7867 74.6C58.3334 74.3333 57.8467 74.2 57.3267 74.2C56.8067 74.2 56.3267 74.3267 55.8867 74.58C55.4467 74.8333 55.0867 75.2067 54.8067 75.7C54.5401 76.18 54.4067 76.7533 54.4067 77.42C54.4067 78.0867 54.5401 78.6733 54.8067 79.18C55.0867 79.6733 55.4467 80.0533 55.8867 80.32C56.3401 80.5867 56.8201 80.72 57.3267 80.72C57.8467 80.72 58.3334 80.5933 58.7867 80.34C59.2401 80.0733 59.6001 79.7 59.8667 79.22C60.1334 78.7267 60.2667 78.14 60.2667 77.46ZM65.1014 77.46C65.1014 76.3133 65.3347 75.3133 65.8014 74.46C66.2681 73.5933 66.9147 72.9267 67.7414 72.46C68.5681 71.98 69.5147 71.74 70.5814 71.74C71.9547 71.74 73.0881 72.0867 73.9814 72.78C74.8881 73.46 75.4947 74.42 75.8014 75.66H72.7814C72.6214 75.18 72.3481 74.8067 71.9614 74.54C71.5881 74.26 71.1214 74.12 70.5614 74.12C69.7614 74.12 69.1281 74.4133 68.6614 75C68.1947 75.5733 67.9614 76.3933 67.9614 77.46C67.9614 78.5133 68.1947 79.3333 68.6614 79.92C69.1281 80.4933 69.7614 80.78 70.5614 80.78C71.6947 80.78 72.4347 80.2733 72.7814 79.26H75.8014C75.4947 80.46 74.8881 81.4133 73.9814 82.12C73.0747 82.8267 71.9414 83.18 70.5814 83.18C69.5147 83.18 68.5681 82.9467 67.7414 82.48C66.9147 82 66.2681 81.3333 65.8014 80.48C65.3347 79.6133 65.1014 78.6067 65.1014 77.46ZM84.0927 71.76C84.9327 71.76 85.6793 71.9467 86.3327 72.32C86.986 72.68 87.4927 73.22 87.8527 73.94C88.226 74.6467 88.4127 75.5 88.4127 76.5V83H85.6127V76.88C85.6127 76 85.3927 75.3267 84.9527 74.86C84.5127 74.38 83.9127 74.14 83.1527 74.14C82.3793 74.14 81.766 74.38 81.3127 74.86C80.8727 75.3267 80.6527 76 80.6527 76.88V83H77.8527V68.2H80.6527V73.3C81.0127 72.82 81.4927 72.4467 82.0927 72.18C82.6927 71.9 83.3593 71.76 84.0927 71.76ZM101.375 77.22C101.375 77.62 101.349 77.98 101.295 78.3H93.1953C93.262 79.1 93.542 79.7267 94.0353 80.18C94.5286 80.6333 95.1353 80.86 95.8553 80.86C96.8953 80.86 97.6353 80.4133 98.0753 79.52H101.095C100.775 80.5867 100.162 81.4667 99.2553 82.16C98.3486 82.84 97.2353 83.18 95.9153 83.18C94.8486 83.18 93.8886 82.9467 93.0353 82.48C92.1953 82 91.5353 81.3267 91.0553 80.46C90.5886 79.5933 90.3553 78.5933 90.3553 77.46C90.3553 76.3133 90.5886 75.3067 91.0553 74.44C91.522 73.5733 92.1753 72.9067 93.0153 72.44C93.8553 71.9733 94.822 71.74 95.9153 71.74C96.9686 71.74 97.9086 71.9667 98.7353 72.42C99.5753 72.8733 100.222 73.52 100.675 74.36C101.142 75.1867 101.375 76.14 101.375 77.22ZM98.4753 76.42C98.462 75.7 98.202 75.1267 97.6953 74.7C97.1886 74.26 96.5686 74.04 95.8353 74.04C95.142 74.04 94.5553 74.2533 94.0753 74.68C93.6086 75.0933 93.322 75.6733 93.2153 76.42H98.4753ZM106.219 73.64C106.579 73.0533 107.046 72.5933 107.619 72.26C108.206 71.9267 108.872 71.76 109.619 71.76V74.7H108.879C107.999 74.7 107.332 74.9067 106.879 75.32C106.439 75.7333 106.219 76.4533 106.219 77.48V83H103.419V71.92H106.219V73.64ZM119.531 74.22V79.58C119.531 79.9533 119.617 80.2267 119.791 80.4C119.977 80.56 120.284 80.64 120.711 80.64H122.011V83H120.251C117.891 83 116.711 81.8533 116.711 79.56V74.22H115.391V71.92H116.711V69.18H119.531V71.92H122.011V74.22H119.531ZM130.265 71.76C131.105 71.76 131.851 71.9467 132.505 72.32C133.158 72.68 133.665 73.22 134.025 73.94C134.398 74.6467 134.585 75.5 134.585 76.5V83H131.785V76.88C131.785 76 131.565 75.3267 131.125 74.86C130.685 74.38 130.085 74.14 129.325 74.14C128.551 74.14 127.938 74.38 127.485 74.86C127.045 75.3267 126.825 76 126.825 76.88V83H124.025V68.2H126.825V73.3C127.185 72.82 127.665 72.4467 128.265 72.18C128.865 71.9 129.531 71.76 130.265 71.76ZM136.527 77.42C136.527 76.3 136.747 75.3067 137.187 74.44C137.641 73.5733 138.247 72.9067 139.007 72.44C139.781 71.9733 140.641 71.74 141.587 71.74C142.414 71.74 143.134 71.9067 143.747 72.24C144.374 72.5733 144.874 72.9933 145.247 73.5V71.92H148.067V83H145.247V81.38C144.887 81.9 144.387 82.3333 143.747 82.68C143.121 83.0133 142.394 83.18 141.567 83.18C140.634 83.18 139.781 82.94 139.007 82.46C138.247 81.98 137.641 81.3067 137.187 80.44C136.747 79.56 136.527 78.5533 136.527 77.42ZM145.247 77.46C145.247 76.78 145.114 76.2 144.847 75.72C144.581 75.2267 144.221 74.8533 143.767 74.6C143.314 74.3333 142.827 74.2 142.307 74.2C141.787 74.2 141.307 74.3267 140.867 74.58C140.427 74.8333 140.067 75.2067 139.787 75.7C139.521 76.18 139.387 76.7533 139.387 77.42C139.387 78.0867 139.521 78.6733 139.787 79.18C140.067 79.6733 140.427 80.0533 140.867 80.32C141.321 80.5867 141.801 80.72 142.307 80.72C142.827 80.72 143.314 80.5933 143.767 80.34C144.221 80.0733 144.581 79.7 144.847 79.22C145.114 78.7267 145.247 78.14 145.247 77.46ZM154.062 74.22V79.58C154.062 79.9533 154.149 80.2267 154.322 80.4C154.509 80.56 154.815 80.64 155.242 80.64H156.542V83H154.782C152.422 83 151.242 81.8533 151.242 79.56V74.22H149.922V71.92H151.242V69.18H154.062V71.92H156.542V74.22H154.062ZM32.62 113.18C31.7133 113.18 30.9 113.02 30.18 112.7C29.46 112.367 28.8867 111.92 28.46 111.36C28.0467 110.8 27.82 110.18 27.78 109.5H30.6C30.6533 109.927 30.86 110.28 31.22 110.56C31.5933 110.84 32.0533 110.98 32.6 110.98C33.1333 110.98 33.5467 110.873 33.84 110.66C34.1467 110.447 34.3 110.173 34.3 109.84C34.3 109.48 34.1133 109.213 33.74 109.04C33.38 108.853 32.8 108.653 32 108.44C31.1733 108.24 30.4933 108.033 29.96 107.82C29.44 107.607 28.9867 107.28 28.6 106.84C28.2267 106.4 28.04 105.807 28.04 105.06C28.04 104.447 28.2133 103.887 28.56 103.38C28.92 102.873 29.4267 102.473 30.08 102.18C30.7467 101.887 31.5267 101.74 32.42 101.74C33.74 101.74 34.7933 102.073 35.58 102.74C36.3667 103.393 36.8 104.28 36.88 105.4H34.2C34.16 104.96 33.9733 104.613 33.64 104.36C33.32 104.093 32.8867 103.96 32.34 103.96C31.8333 103.96 31.44 104.053 31.16 104.24C30.8933 104.427 30.76 104.687 30.76 105.02C30.76 105.393 30.9467 105.68 31.32 105.88C31.6933 106.067 32.2733 106.26 33.06 106.46C33.86 106.66 34.52 106.867 35.04 107.08C35.56 107.293 36.0067 107.627 36.38 108.08C36.7667 108.52 36.9667 109.107 36.98 109.84C36.98 110.48 36.8 111.053 36.44 111.56C36.0933 112.067 35.5867 112.467 34.92 112.76C34.2667 113.04 33.5 113.18 32.62 113.18ZM49.7384 101.92V113H46.9184V111.6C46.5584 112.08 46.0851 112.46 45.4984 112.74C44.9251 113.007 44.2984 113.14 43.6184 113.14C42.7518 113.14 41.9851 112.96 41.3184 112.6C40.6518 112.227 40.1251 111.687 39.7384 110.98C39.3651 110.26 39.1784 109.407 39.1784 108.42V101.92H41.9784V108.02C41.9784 108.9 42.1984 109.58 42.6384 110.06C43.0784 110.527 43.6784 110.76 44.4384 110.76C45.2118 110.76 45.8184 110.527 46.2584 110.06C46.6984 109.58 46.9184 108.9 46.9184 108.02V101.92H49.7384ZM53.9211 100.6C53.4278 100.6 53.0144 100.447 52.6811 100.14C52.3611 99.82 52.2011 99.4267 52.2011 98.96C52.2011 98.4933 52.3611 98.1067 52.6811 97.8C53.0144 97.48 53.4278 97.32 53.9211 97.32C54.4144 97.32 54.8211 97.48 55.1411 97.8C55.4744 98.1067 55.6411 98.4933 55.6411 98.96C55.6411 99.4267 55.4744 99.82 55.1411 100.14C54.8211 100.447 54.4144 100.6 53.9211 100.6ZM55.3011 101.92V113H52.5011V101.92H55.3011ZM61.3275 104.22V109.58C61.3275 109.953 61.4142 110.227 61.5875 110.4C61.7742 110.56 62.0808 110.64 62.5075 110.64H63.8075V113H62.0475C59.6875 113 58.5075 111.853 58.5075 109.56V104.22H57.1875V101.92H58.5075V99.18H61.3275V101.92H63.8075V104.22H61.3275ZM70.0614 113.18C69.1547 113.18 68.3414 113.02 67.6214 112.7C66.9014 112.367 66.3281 111.92 65.9014 111.36C65.4881 110.8 65.2614 110.18 65.2214 109.5H68.0414C68.0947 109.927 68.3014 110.28 68.6614 110.56C69.0347 110.84 69.4947 110.98 70.0414 110.98C70.5747 110.98 70.9881 110.873 71.2814 110.66C71.5881 110.447 71.7414 110.173 71.7414 109.84C71.7414 109.48 71.5547 109.213 71.1814 109.04C70.8214 108.853 70.2414 108.653 69.4414 108.44C68.6147 108.24 67.9347 108.033 67.4014 107.82C66.8814 107.607 66.4281 107.28 66.0414 106.84C65.6681 106.4 65.4814 105.807 65.4814 105.06C65.4814 104.447 65.6547 103.887 66.0014 103.38C66.3614 102.873 66.8681 102.473 67.5214 102.18C68.1881 101.887 68.9681 101.74 69.8614 101.74C71.1814 101.74 72.2347 102.073 73.0214 102.74C73.8081 103.393 74.2414 104.28 74.3214 105.4H71.6414C71.6014 104.96 71.4147 104.613 71.0814 104.36C70.7614 104.093 70.3281 103.96 69.7814 103.96C69.2747 103.96 68.8814 104.053 68.6014 104.24C68.3347 104.427 68.2014 104.687 68.2014 105.02C68.2014 105.393 68.3881 105.68 68.7614 105.88C69.1347 106.067 69.7147 106.26 70.5014 106.46C71.3014 106.66 71.9614 106.867 72.4814 107.08C73.0014 107.293 73.4481 107.627 73.8214 108.08C74.2081 108.52 74.4081 109.107 74.4214 109.84C74.4214 110.48 74.2414 111.053 73.8814 111.56C73.5347 112.067 73.0281 112.467 72.3614 112.76C71.7081 113.04 70.9414 113.18 70.0614 113.18ZM92.0855 101.92L85.2255 118.24H82.2455L84.6455 112.72L80.2055 101.92H83.3455L86.2055 109.66L89.1055 101.92H92.0855ZM98.5148 113.18C97.4482 113.18 96.4882 112.947 95.6348 112.48C94.7815 112 94.1082 111.327 93.6148 110.46C93.1348 109.593 92.8948 108.593 92.8948 107.46C92.8948 106.327 93.1415 105.327 93.6348 104.46C94.1415 103.593 94.8282 102.927 95.6948 102.46C96.5615 101.98 97.5282 101.74 98.5948 101.74C99.6615 101.74 100.628 101.98 101.495 102.46C102.362 102.927 103.042 103.593 103.535 104.46C104.042 105.327 104.295 106.327 104.295 107.46C104.295 108.593 104.035 109.593 103.515 110.46C103.008 111.327 102.315 112 101.435 112.48C100.568 112.947 99.5948 113.18 98.5148 113.18ZM98.5148 110.74C99.0215 110.74 99.4948 110.62 99.9348 110.38C100.388 110.127 100.748 109.753 101.015 109.26C101.282 108.767 101.415 108.167 101.415 107.46C101.415 106.407 101.135 105.6 100.575 105.04C100.028 104.467 99.3548 104.18 98.5548 104.18C97.7548 104.18 97.0815 104.467 96.5348 105.04C96.0015 105.6 95.7348 106.407 95.7348 107.46C95.7348 108.513 95.9948 109.327 96.5148 109.9C97.0482 110.46 97.7148 110.74 98.5148 110.74ZM116.809 101.92V113H113.989V111.6C113.629 112.08 113.155 112.46 112.569 112.74C111.995 113.007 111.369 113.14 110.689 113.14C109.822 113.14 109.055 112.96 108.389 112.6C107.722 112.227 107.195 111.687 106.809 110.98C106.435 110.26 106.249 109.407 106.249 108.42V101.92H109.049V108.02C109.049 108.9 109.269 109.58 109.709 110.06C110.149 110.527 110.749 110.76 111.509 110.76C112.282 110.76 112.889 110.527 113.329 110.06C113.769 109.58 113.989 108.9 113.989 108.02V101.92H116.809ZM123.191 98.8L122.871 108.46H120.511L120.171 98.8H123.191ZM121.751 113.14C121.245 113.14 120.825 112.987 120.491 112.68C120.171 112.36 120.011 111.967 120.011 111.5C120.011 111.033 120.171 110.647 120.491 110.34C120.825 110.02 121.245 109.86 121.751 109.86C122.245 109.86 122.651 110.02 122.971 110.34C123.291 110.647 123.451 111.033 123.451 111.5C123.451 111.967 123.291 112.36 122.971 112.68C122.651 112.987 122.245 113.14 121.751 113.14Z" fill="white"/>
<path d="M240.918 24L230.962 24.7374L235.387 85.2081L245.342 84.4707L240.918 24Z" fill="#DADAED"/>
<path d="M234.834 32.5728L231.423 32.8493L231.515 33.5867L234.926 33.3102L234.834 32.5728Z" fill="#F8D0B3"/>
<path d="M235.387 39.302L231.976 39.5785L232.068 40.316L235.479 40.0394L235.387 39.302Z" fill="#F8D0B3"/>
<path d="M235.94 46.1234L232.529 46.3999L232.621 47.1374L236.032 46.8608L235.94 46.1234Z" fill="#F8D0B3"/>
<path d="M236.401 52.8526L232.99 53.1292L233.082 53.8666L236.493 53.5901L236.401 52.8526Z" fill="#F8D0B3"/>
<path d="M236.861 59.674L233.451 59.9506L233.543 60.688L236.954 60.4115L236.861 59.674Z" fill="#F8D0B3"/>
<path d="M230.685 44.7407L224.325 45.8468L232.713 93.5967L239.074 92.4904L230.685 44.7407Z" fill="#FFADB2"/>
<path d="M230.685 44.7408L224.325 45.8469L225.339 36.7209L226.63 36.4445L230.685 44.7408Z" fill="#EBDBCD"/>
<path d="M225.708 40.9612L226.63 40.4082L227.367 40.5003L228.381 40.0394L226.722 36.6288L225.431 36.9054L224.97 40.5003L225.708 40.9612Z" fill="#FF7A82"/>
<path d="M245.435 83.641C244.329 83.4567 243.591 82.4427 243.775 81.3365L248.753 49.4419C248.845 49.1654 248.845 48.8888 248.938 48.7044L251.795 40.6847C252.164 39.7629 253.178 39.2098 254.1 39.3941L254.561 39.4863C255.575 39.6707 256.22 40.5925 256.22 41.6065L255.575 50.0871C255.575 50.3637 255.483 50.6402 255.483 50.9168L247.924 82.2583C247.555 83.1801 246.541 83.9176 245.435 83.641Z" fill="#12999E"/>
<path d="M282.768 105.488H241.378V119.315H282.768V105.488Z" fill="#F8D7BC"/>
<path d="M284.519 104.474V105.488H241.286V119.315H284.519V120.329H195.657V104.382H284.519V104.474Z" fill="#FF7A82"/>
<path d="M228.381 144.112H289.497V121.804H228.381C225.339 121.804 222.942 124.293 222.942 127.243V138.581C222.942 141.715 225.339 144.112 228.381 144.112Z" fill="#F8ECE2"/>
<path d="M192.246 120.421H292.262C292.631 120.421 293 120.79 293 121.159C293 121.527 292.631 121.896 292.262 121.896H280.002H234.096C227.92 121.896 222.942 126.874 222.942 133.05C222.942 139.226 227.92 144.204 234.096 144.204H290.787H292.262C292.631 144.204 293 144.573 293 144.941C293 145.31 292.631 145.679 292.262 145.679H192.154C185.978 145.679 181 140.701 181 134.525V131.76C181.092 125.399 186.07 120.421 192.246 120.421Z" fill="#12999E"/>
<path d="M289.589 125.399H231.607V126.137H289.589V125.399Z" fill="#EBD0BE"/>
<path d="M289.589 134.617H227.367V135.355H289.589V134.617Z" fill="#EBD0BE"/>
<path d="M289.589 139.411H235.018V140.148H289.589V139.411Z" fill="#EBD0BE"/>
<path d="M289.589 130.285H229.211V131.022H289.589V130.285Z" fill="#EBD0BE"/>
<path d="M242.116 103.921H204.045V95.9012H242.116C243.222 95.9012 244.052 96.7308 244.052 97.837V101.893C244.052 102.999 243.222 103.921 242.116 103.921Z" fill="#F8E7D8"/>
<path d="M265.807 95.348H202.478C202.386 95.348 202.202 95.4402 202.202 95.6246C202.202 95.809 202.294 95.9012 202.478 95.9012H239.996C242.208 95.9012 243.96 97.7448 243.96 99.8649C243.96 102.077 242.116 103.829 239.996 103.829H202.478C202.386 103.829 202.202 103.921 202.202 104.105C202.202 104.197 202.294 104.382 202.478 104.382H265.807C268.019 104.382 269.77 102.538 269.77 100.418V99.2197C269.77 97.0995 268.019 95.348 265.807 95.348Z" fill="#FF5856"/>
<path d="M226.261 61.8864H254.1C254.837 61.8864 255.39 62.5317 255.298 63.2691L251.242 95.348H228.934L225.063 63.2691C224.97 62.5317 225.523 61.8864 226.261 61.8864Z" fill="#FFADB2"/>
<path d="M254.652 39.1176L254.192 39.0254C253.178 38.8411 252.164 39.3942 251.795 40.316L248.845 48.5201C248.753 48.6123 248.753 48.7045 248.753 48.8889C249.675 49.6263 250.873 50.2715 252.164 50.4559C253.362 50.6403 254.56 50.5481 255.574 50.2716C255.574 50.1794 255.667 50.0872 255.667 49.9028L256.312 41.2378C256.404 40.2238 255.666 39.3941 254.652 39.1176Z" fill="#D7D7E6"/>
<path d="M254.745 26.7655C255.022 26.2124 255.759 26.2124 256.035 26.7655C256.496 27.6873 257.05 28.7934 257.51 29.5309C258.248 30.9136 258.709 34.0477 258.248 35.6148C257.787 37.4584 256.496 39.302 256.128 39.9473C256.036 40.0395 255.943 40.1317 255.759 40.2239C255.39 40.3161 254.653 40.5004 253.639 40.316C252.256 39.9473 252.164 39.1176 252.164 39.1176C252.164 39.1176 251.426 36.1679 251.519 34.3243C251.611 32.4806 252.625 30.1761 253.086 29.8074C253.362 29.3465 254.192 27.8716 254.745 26.7655Z" fill="#C7645D"/>
<path d="M292.262 144.112H290.787H285.902C285.533 144.665 285.165 145.126 284.704 145.495H292.17C292.539 145.495 292.908 145.126 292.908 144.757C292.908 144.481 292.631 144.112 292.262 144.112Z" fill="#12999E"/>
<path d="M292.262 121.804C292.631 121.804 293 121.435 293 121.067C293 120.698 292.631 120.329 292.262 120.329H287.193V121.712L292.262 121.804Z" fill="#12999E"/>
</svg>
