<svg width="24" height="22" viewBox="0 0 24 22" fill="none" xmlns="http://www.w3.org/2000/svg">
<path d="M23.0611 2.0111H8.76248C8.36937 0.843546 7.26502 0 5.96659 0C4.66817 0 3.56382 0.843546 3.17071 2.0111H0.938803C0.420333 2.0111 0 2.43144 0 2.94991C0 3.46838 0.420333 3.88871 0.938803 3.88871H3.17078C3.56388 5.05627 4.66823 5.89981 5.96666 5.89981C7.26508 5.89981 8.36943 5.05627 8.76254 3.88871H23.0612C23.5797 3.88871 24 3.46838 24 2.94991C24 2.43144 23.5797 2.0111 23.0611 2.0111ZM5.96659 4.02221C5.37534 4.02221 4.89429 3.54117 4.89429 2.94991C4.89429 2.35865 5.37534 1.87761 5.96659 1.87761C6.55785 1.87761 7.0389 2.35865 7.0389 2.94991C7.0389 3.54117 6.55785 4.02221 5.96659 4.02221Z" fill="white"/>
<path d="M23.0611 10.0556H20.8292C20.4361 8.88804 19.3316 8.04449 18.0333 8.04449C16.7349 8.04449 15.6306 8.88804 15.2375 10.0556H0.938803C0.420333 10.0556 0 10.4759 0 10.9944C0 11.5129 0.420333 11.9332 0.938803 11.9332H15.2375C15.6306 13.1008 16.735 13.9443 18.0333 13.9443C19.3317 13.9443 20.4361 13.1008 20.8292 11.9332H23.0612C23.5797 11.9332 24 11.5129 24 10.9944C24 10.4759 23.5797 10.0556 23.0611 10.0556ZM18.0333 12.0667C17.4421 12.0667 16.961 11.5857 16.961 10.9944C16.961 10.4031 17.4421 9.9221 18.0333 9.9221C18.6246 9.9221 19.1056 10.4031 19.1056 10.9944C19.1056 11.5857 18.6246 12.0667 18.0333 12.0667Z" fill="white"/>
<path d="M23.0611 18.1H12.7847C12.3916 16.9325 11.2873 16.0889 9.98887 16.0889C8.69044 16.0889 7.58609 16.9325 7.19298 18.1H0.938803C0.420333 18.1 0 18.5204 0 19.0388C0 19.5573 0.420333 19.9776 0.938803 19.9776H7.19298C7.58609 21.1452 8.69044 21.9887 9.98887 21.9887C11.2873 21.9887 12.3916 21.1452 12.7847 19.9776H23.0612C23.5797 19.9776 24 19.5573 24 19.0388C24 18.5204 23.5797 18.1 23.0611 18.1ZM9.98887 20.1112C9.39761 20.1112 8.91656 19.6302 8.91656 19.0389C8.91656 18.4476 9.39761 17.9666 9.98887 17.9666C10.5801 17.9666 11.0612 18.4476 11.0612 19.0388C11.0612 19.6301 10.5801 20.1112 9.98887 20.1112Z" fill="white"/>
</svg>
