<svg width="25" height="25" viewBox="0 0 25 25" fill="none" xmlns="http://www.w3.org/2000/svg">
<path d="M12.1496 24.4012C10.05 24.399 7.98665 23.8538 6.16001 22.8186C5.76711 22.5236 5.29848 22.3463 4.8087 22.3073C4.65159 22.3068 4.49541 22.3315 4.34609 22.3804L1.9113 23.1108H1.63131C1.51458 23.11 1.39947 23.0834 1.29423 23.0329C1.18899 22.9824 1.09624 22.9092 1.02261 22.8186C0.951963 22.717 0.90538 22.6006 0.886396 22.4782C0.867413 22.3559 0.876524 22.2308 0.913043 22.1125L1.7287 19.3734C1.79602 19.1958 1.82328 19.0055 1.80855 18.8161C1.79382 18.6267 1.73746 18.4429 1.64349 18.2778C0.596495 16.4176 0.0315086 14.3251 0 12.1908C0.0110887 9.01312 1.24477 5.96161 3.44522 3.66906C4.57919 2.50769 5.93395 1.5848 7.42983 0.9547C8.92571 0.324598 10.5325 0 12.1557 0C13.7788 0 15.3856 0.324598 16.8815 0.9547C18.3774 1.5848 19.7321 2.50769 20.8661 3.66906C23.0907 5.94878 24.3396 9.00553 24.3478 12.1908C24.3606 13.9379 24.0038 15.6679 23.3009 17.2673C22.6466 18.7214 21.7021 20.0263 20.5252 21.1021C18.2443 23.2107 15.2558 24.3878 12.1496 24.4012ZM17.7374 10.6934C17.4247 10.6911 17.1185 10.7821 16.8579 10.9549C16.5973 11.1276 16.3942 11.3742 16.2746 11.6631C16.155 11.952 16.1244 12.27 16.1866 12.5764C16.2489 12.8828 16.4011 13.1636 16.624 13.383C16.8468 13.6023 17.13 13.7501 17.4373 13.8075C17.7447 13.8649 18.0622 13.8293 18.3491 13.7052C18.6361 13.581 18.8795 13.3741 19.0481 13.1108C19.2167 12.8475 19.3029 12.5399 19.2957 12.2273C19.2893 11.8183 19.1223 11.4282 18.8307 11.1412C18.5392 10.8542 18.1465 10.6934 17.7374 10.6934ZM12.1009 10.6934C11.7943 10.6982 11.4959 10.7934 11.2431 10.9669C10.9904 11.1405 10.7944 11.3848 10.6799 11.6692C10.5653 11.9537 10.5372 12.2656 10.5991 12.5659C10.6609 12.8662 10.81 13.1416 11.0277 13.3576C11.2453 13.5736 11.5219 13.7205 11.8227 13.7801C12.1235 13.8396 12.4351 13.8091 12.7187 13.6923C13.0022 13.5756 13.245 13.3778 13.4166 13.1237C13.5882 12.8696 13.6811 12.5705 13.6835 12.2638C13.6851 12.0561 13.6452 11.8502 13.5661 11.6581C13.487 11.466 13.3703 11.2917 13.2229 11.1454C13.0754 10.9991 12.9002 10.8837 12.7075 10.8061C12.5148 10.7285 12.3086 10.6902 12.1009 10.6934ZM6.51305 10.6934C6.2004 10.6911 5.89417 10.7821 5.63357 10.9549C5.37298 11.1276 5.16988 11.3742 5.05029 11.6631C4.9307 11.952 4.90005 12.27 4.96229 12.5764C5.02452 12.8828 5.1768 13.1636 5.39961 13.383C5.62243 13.6023 5.90564 13.7501 6.21299 13.8075C6.52033 13.8649 6.8378 13.8293 7.12477 13.7052C7.41173 13.581 7.65511 13.3741 7.82374 13.1108C7.99237 12.8475 8.07857 12.5399 8.07131 12.2273C8.06492 11.8183 7.89792 11.4282 7.60638 11.1412C7.31484 10.8542 6.92214 10.6934 6.51305 10.6934Z" fill="#023537"/>
</svg>
