<svg width="24" height="25" viewBox="0 0 24 25" fill="none" xmlns="http://www.w3.org/2000/svg">
<path d="M8.08348 22.848V19.1959C8.07357 18.9634 8.11104 18.7313 8.19363 18.5137C8.27621 18.2961 8.40217 18.0976 8.56386 17.9302C8.72556 17.7628 8.9196 17.63 9.13419 17.54C9.34879 17.4499 9.57946 17.4044 9.81217 17.4063H13.3061C13.7608 17.4108 14.1965 17.5895 14.5235 17.9054C14.8483 18.2276 15.0321 18.6654 15.0348 19.1228V22.848C15.0296 23.0443 15.0648 23.2396 15.1381 23.4218C15.2114 23.6039 15.3212 23.7691 15.4609 23.9072C15.7426 24.1868 16.1231 24.3443 16.52 24.3454H18.9548C20.0618 24.3405 21.1232 23.9037 21.913 23.128C22.6925 22.3456 23.1302 21.2863 23.1304 20.182V9.57848C23.1255 9.14196 23.0249 8.71184 22.8356 8.31848C22.6462 7.92512 22.3729 7.57811 22.0348 7.30196L13.9148 0.825439C13.2313 0.276871 12.3773 -0.0149754 11.5011 0.000592083C10.6249 0.0161596 9.78179 0.338157 9.11826 0.910656L1.21739 7.30196C0.852178 7.56978 0.552751 7.91725 0.34182 8.31802C0.130889 8.71879 0.0139933 9.16233 0 9.615L0 20.2063C0.012837 21.3106 0.461384 22.3652 1.248 23.1404C2.03461 23.9156 3.0956 24.3487 4.2 24.3454H6.53739C6.93357 24.3455 7.31389 24.1898 7.5963 23.9119C7.87871 23.6341 8.04057 23.2563 8.04696 22.8602L8.08348 22.848Z" fill="#023537"/>
</svg>
