<svg width="18" height="21" viewBox="0 0 18 21" fill="none" xmlns="http://www.w3.org/2000/svg">
<path d="M8.40348 20.9919C7.74796 20.8931 7.12943 20.6255 6.60867 20.2152C6.4007 20.0801 6.22638 19.8992 6.09904 19.6863C5.9717 19.4735 5.89471 19.2344 5.87395 18.9872C5.87395 18.4624 6.35677 18.221 6.8081 18.116C8.20527 18.0029 9.60931 18.0029 11.0065 18.116C11.4578 18.221 11.9406 18.4624 11.9406 18.9872C11.9211 19.2349 11.8458 19.4749 11.7204 19.6894C11.595 19.9039 11.4227 20.0872 11.2164 20.2257C10.7017 20.6241 10.0955 20.8875 9.45308 20.9919C9.27831 21.0027 9.10305 21.0027 8.92828 20.9919C8.7535 21.0024 8.57826 21.0024 8.40348 20.9919ZM3.97418 16.5626C2.81175 16.4537 1.72922 15.9236 0.930355 15.0722C0.334251 14.3847 0.00627997 13.5051 0.00670843 12.5952C-0.0472543 11.7199 0.225806 10.8559 0.772914 10.1706C1.16132 9.77171 1.46118 9.29535 1.6529 8.77265C1.84461 8.24995 1.92387 7.69268 1.88549 7.13726V6.68593C1.81786 5.21414 2.30053 3.76988 3.23947 2.63449C3.93389 1.81278 4.79846 1.15165 5.77341 0.69679C6.74837 0.241932 7.81046 0.0041919 8.8863 0L8.98076 0C10.0784 0.00608961 11.161 0.255952 12.1502 0.731529C13.1395 1.20711 14.0108 1.89652 14.7011 2.74994C15.5887 3.86345 16.0369 5.26397 15.9606 6.68593V7.13726C15.9232 8.24195 16.323 9.31682 17.0732 10.1286C17.6341 10.8233 17.9115 11.7044 17.8499 12.5952C17.8565 13.5088 17.5364 14.3948 16.9472 15.0932C16.1473 15.9416 15.0646 16.4679 13.9034 16.5731C12.2555 16.7096 10.5971 16.8355 8.92828 16.8355C7.26567 16.8232 5.60491 16.7215 3.95319 16.5311L3.97418 16.5626Z" fill="#12999E" fill-opacity="0.6"/>
</svg>
