<svg width="20" height="25" viewBox="0 0 20 25" fill="none" xmlns="http://www.w3.org/2000/svg">
<path d="M9.73913 12.2829C13.131 12.2829 15.8806 9.53327 15.8806 6.14144C15.8806 2.74962 13.131 0 9.73913 0C6.3473 0 3.59769 2.74962 3.59769 6.14144C3.59769 9.53327 6.3473 12.2829 9.73913 12.2829Z" fill="#023537"/>
<path d="M0.000529731 20.8141C-0.00809794 20.3695 0.0887712 19.9292 0.283192 19.5292C0.707681 18.9479 1.24956 18.4622 1.87371 18.1037C2.49786 17.7451 3.19036 17.5217 3.90638 17.4478C4.89756 17.2399 5.90225 17.1025 6.91287 17.0367C8.78928 16.8697 10.6768 16.8697 12.5532 17.0367C13.5647 17.1014 14.5698 17.2431 15.5597 17.4607C16.9345 17.7433 18.5919 18.2958 19.1829 19.5421C19.3773 19.9425 19.4783 20.3818 19.4783 20.8269C19.4783 21.272 19.3773 21.7113 19.1829 22.1117C18.5919 23.3966 16.9345 23.9105 15.5597 24.1803C14.5691 24.3968 13.5645 24.5427 12.5532 24.6171C11.0272 24.7349 9.49518 24.7563 7.96641 24.6814C7.61362 24.6877 7.26099 24.6619 6.91287 24.6043C5.90531 24.5353 4.9045 24.3892 3.91924 24.1674C3.20034 24.109 2.50276 23.8949 1.87489 23.5399C1.24702 23.1849 0.703892 22.6976 0.283192 22.1117C0.090429 21.7067 -0.00630035 21.2626 0.000529731 20.8141Z" fill="#023537"/>
</svg>
