<svg width="34" height="28" viewBox="0 0 34 28" fill="none" xmlns="http://www.w3.org/2000/svg">
<path d="M32.9125 5.63101L17.1116 0.0560571C16.8999 -0.0186857 16.6689 -0.0186857 16.4572 0.0560571L0.656295 5.63101C0.263436 5.76962 0.000525297 6.14071 7.85916e-07 6.5573C-0.000523725 6.97389 0.261535 7.34557 0.654066 7.48509L16.455 13.1024C16.5615 13.1403 16.6729 13.1593 16.7843 13.1593C16.8958 13.1593 17.0072 13.1403 17.1137 13.1024L32.9146 7.48509C33.3071 7.34557 33.5691 6.97389 33.5687 6.5573C33.5682 6.14071 33.3052 5.76962 32.9125 5.63101Z" fill="#023537"/>
<path d="M31.2066 18.7582V10.1799L29.2397 10.8791V18.7582C28.6473 19.0992 28.2481 19.7382 28.2481 20.4708C28.2481 21.2034 28.6473 21.8424 29.2397 22.1834V27.0165C29.2397 27.5597 29.6801 28 30.2232 28C30.7663 28 31.2066 27.5597 31.2066 27.0165V22.1835C31.7991 21.8426 32.1983 21.2035 32.1983 20.4709C32.1983 19.7382 31.7991 19.0992 31.2066 18.7582Z" fill="#023537"/>
<path d="M16.7844 15.1262C16.4469 15.1262 16.1144 15.0688 15.7962 14.9557L6.91342 11.7979V16.1256C6.91342 17.1844 8.01798 18.0798 10.1964 18.7868C12.0952 19.4031 14.4349 19.7425 16.7844 19.7425C19.134 19.7425 21.4736 19.4031 23.3725 18.7868C25.5509 18.0798 26.6555 17.1844 26.6555 16.1256V11.7979L17.7728 14.9557C17.4545 15.0688 17.122 15.1262 16.7844 15.1262Z" fill="#023537"/>
</svg>
